<svg width="317" height="260" viewBox="0 0 317 260" fill="none" xmlns="http://www.w3.org/2000/svg">
<path d="M89.7569 12.8019C67.2879 38.1003 54.1068 70.5152 52.6682 103.369C52.6565 103.628 52.674 103.11 52.6682 103.369C51.7023 128.486 57.5582 153.519 69.629 175.031C73.223 181.442 77.3891 187.61 82.0053 193.358C83.9066 195.725 87.4814 196.057 89.9908 194.099C92.4999 192.141 92.9929 188.631 91.0915 186.267C88.3919 182.905 85.8614 179.387 83.5239 175.755L196.419 110.202L218.737 148.637C191.229 165.508 155.81 194.366 137.403 222.063C134.023 220.534 130.71 218.872 127.485 217.06C124.809 215.555 121.295 216.507 119.638 219.187C117.981 221.866 118.808 225.256 121.484 226.761C131.653 232.475 142.579 236.913 153.959 239.95C166.129 243.197 178.823 244.844 191.688 244.845C204.554 244.845 217.392 243.2 229.845 239.954C248.442 235.107 265.81 226.873 281.466 215.478C296.927 204.225 309.949 190.46 320.166 174.567C334.043 153.01 341.976 128.332 343.112 103.198L343.121 102.999C344.268 76.8017 337.949 51.2248 325.101 29.1005C321.458 22.8257 317.287 16.8256 312.615 11.1715C296.84 -7.92155 275.982 -22.4147 252.298 -30.7423C236.979 -36.1306 220.768 -38.8634 204.115 -38.8641C186.52 -38.8655 169.187 -35.8249 152.594 -29.8271C128.507 -21.1131 106.777 -6.37182 89.7569 12.8019ZM98.235 19.8801C107.179 9.80421 117.535 1.05948 128.896 -6.08714L163.904 54.2031C133.428 71.0818 100.482 81.9751 65.8518 86.6175C70.0857 62.2043 81.2852 38.964 98.235 19.8801ZM78.0012 166.261C68.016 147.181 63.1964 125.616 64.0479 103.656C64.1168 101.761 64.2385 99.8653 64.3961 97.9713C101.522 93.3182 136.822 81.7936 169.419 63.7036L190.904 100.704L78.0012 166.261ZM192.175 233.719C180.312 233.718 168.612 232.201 157.399 229.208C154.2 228.355 151.046 227.367 147.933 226.276C164.92 201.643 197.784 174.426 224.254 158.139L258.439 217.012C248.604 222.296 238.204 226.383 227.347 229.212C215.873 232.203 204.039 233.719 192.175 233.719ZM310.585 168.945C301.165 183.596 289.161 196.286 274.906 206.66C272.762 208.22 270.581 209.708 268.37 211.138L234.224 152.333C263.975 135.857 296.078 125.087 329.805 120.266C326.722 137.425 320.204 154 310.585 168.945ZM331.724 103.186C331.637 105.089 331.494 106.989 331.324 108.885C295.08 113.727 260.6 125.136 228.708 142.833L206.397 104.408L317.788 39.7279C327.832 58.9667 332.707 80.74 331.732 102.993L331.724 103.186ZM303.622 18.3768C306.754 22.1675 309.638 26.1276 312.271 30.23L200.881 94.9095L179.39 57.8987C206.771 41.1043 241.984 12.4371 260.46 -15.1391C277.159 -7.22068 291.909 4.20077 303.622 18.3768ZM203.629 -27.738C218.981 -27.737 233.921 -25.2202 248.034 -20.2561C248.706 -20.02 249.375 -19.7781 250.041 -19.5314C233.017 5.04488 200.27 32.153 173.873 48.3966L138.902 -11.8302C144.47 -14.7334 150.232 -17.273 156.15 -19.4134C171.434 -24.9382 187.408 -27.7392 203.629 -27.738Z" fill="white"/>
<path d="M107.225 203.403C104.798 201.568 101.221 202.068 99.2365 204.517C97.2516 206.967 97.6113 210.439 100.038 212.273C102.466 214.107 106.043 213.608 108.027 211.158C110.011 208.709 109.653 205.237 107.225 203.403Z" fill="white"/>
</svg>
