<svg width="24" height="24" viewBox="0 0 24 24" fill="none" xmlns="http://www.w3.org/2000/svg">
<g clip-path="url(#clip0_488_2333)">
<path d="M18.3279 11.7869H20.0019C20.3804 11.7869 20.6883 11.479 20.6883 11.1005V9.42642C20.6883 9.04795 20.3804 8.74003 20.0019 8.74003H18.3279C17.9494 8.74003 17.6415 9.04795 17.6415 9.42642V11.1005C17.6415 11.479 17.9494 11.7869 18.3279 11.7869ZM18.3446 9.44316H19.9852V11.0838H18.3446V9.44316ZM18.3279 16.24H20.0019C20.3804 16.24 20.6883 15.9321 20.6883 15.5536V13.8795C20.6883 13.5011 20.3804 13.1932 20.0019 13.1932H18.3279C17.9494 13.1932 17.6415 13.5011 17.6415 13.8795V15.5536C17.6415 15.9321 17.9494 16.24 18.3279 16.24ZM18.3446 13.8963H19.9852V15.5369H18.3446V13.8963ZM13.5505 11.7869H15.2246C15.6031 11.7869 15.911 11.479 15.911 11.1005V9.42642C15.911 9.04795 15.6031 8.74003 15.2246 8.74003H13.5505C13.1721 8.74003 12.8642 9.04795 12.8642 9.42642V11.1005C12.8642 11.479 13.1721 11.7869 13.5505 11.7869ZM13.5673 9.44316H15.2079V11.0838H13.5673V9.44316ZM5.67001 17.4375H3.99591C3.61745 17.4375 3.30952 17.7454 3.30952 18.1239V19.798C3.30952 20.1765 3.61745 20.4844 3.99591 20.4844H5.67001C6.04848 20.4844 6.3564 20.1765 6.3564 19.798V18.1239C6.3564 17.7454 6.04848 17.4375 5.67001 17.4375ZM5.65327 19.7812H4.01265V18.1406H5.65327V19.7812ZM5.67001 8.74003H3.99591C3.61745 8.74003 3.30952 9.04795 3.30952 9.42642V11.1005C3.30952 11.479 3.61745 11.7869 3.99591 11.7869H5.67001C6.04848 11.7869 6.3564 11.479 6.3564 11.1005V9.42642C6.3564 9.04791 6.04848 8.74003 5.67001 8.74003ZM5.65327 11.0838H4.01265V9.44316H5.65327V11.0838ZM13.5505 16.1356H15.2246C15.6031 16.1356 15.911 15.8277 15.911 15.4493V13.7752C15.911 13.3967 15.6031 13.0888 15.2246 13.0888H13.5505C13.1721 13.0888 12.8642 13.3967 12.8642 13.7752V15.4493C12.8642 15.8277 13.1721 16.1356 13.5505 16.1356ZM13.5673 13.7919H15.2079V15.4325H13.5673V13.7919ZM21.0375 1.60659H19.5344V1.06908C19.5344 0.479578 19.0548 0 18.4653 0H18.3039C17.7144 0 17.2349 0.479578 17.2349 1.06908V1.60659H6.76299V1.06908C6.76299 0.479578 6.28341 0 5.69391 0H5.53248C4.94298 0 4.4634 0.479578 4.4634 1.06908V1.60659H2.96035C1.9898 1.60659 1.2002 2.3962 1.2002 3.36675V22.2422C1.2002 23.2115 1.98873 24 2.95801 24H21.0399C22.0092 24 22.7978 23.2115 22.7978 22.2422V3.36675C22.7977 2.3962 22.0081 1.60659 21.0375 1.60659ZM17.938 1.06908C17.938 0.867281 18.1021 0.703125 18.3039 0.703125H18.4654C18.6672 0.703125 18.8313 0.867281 18.8313 1.06908V1.60659H17.938V1.06908ZM5.16657 1.06908C5.16657 0.867281 5.33073 0.703125 5.53252 0.703125H5.69396C5.89576 0.703125 6.05991 0.867281 6.05991 1.06908V1.60659H5.16662V1.06908H5.16657ZM22.0946 22.2422C22.0946 22.8238 21.6215 23.2969 21.0399 23.2969H2.95796C2.37638 23.2969 1.90327 22.8238 1.90327 22.2422V22.24C2.19784 22.4619 2.56398 22.5938 2.96035 22.5938H17.2142C17.6844 22.5938 18.1264 22.4107 18.4589 22.0782L22.0946 18.4425V22.2422ZM18.1001 21.4425C18.1277 21.3288 18.1427 21.2101 18.1427 21.088V18.7413C18.1427 18.2988 18.5027 17.9387 18.9453 17.9387H21.292C21.4141 17.9387 21.5327 17.9237 21.6465 17.8962L18.1001 21.4425ZM22.0946 6.63066H7.11456C6.9204 6.63066 6.76299 6.78806 6.76299 6.98222C6.76299 7.17637 6.9204 7.33378 7.11456 7.33378H22.0946V16.4331C22.0946 16.8756 21.7345 17.2357 21.292 17.2357H18.9453C18.115 17.2357 17.4396 17.9111 17.4396 18.7413V21.0881C17.4396 21.5306 17.0795 21.8907 16.637 21.8907H2.96035C2.37751 21.8907 1.90332 21.4165 1.90332 20.8336V7.33378H5.70831C5.90246 7.33378 6.05987 7.17637 6.05987 6.98222C6.05987 6.78806 5.90246 6.63066 5.70831 6.63066H1.90327V3.36675C1.90327 2.78391 2.37746 2.30972 2.9603 2.30972H4.4634V3.34341C4.4634 3.93291 4.94298 4.41248 5.53248 4.41248C5.72663 4.41248 5.88404 4.25508 5.88404 4.06092C5.88404 3.86677 5.72663 3.70936 5.53248 3.70936C5.33068 3.70936 5.16652 3.5452 5.16652 3.34341V2.30972H17.2349V3.34341C17.2349 3.93291 17.7144 4.41248 18.3039 4.41248C18.4981 4.41248 18.6555 4.25508 18.6555 4.06092C18.6555 3.86677 18.4981 3.70936 18.3039 3.70936C18.1021 3.70936 17.938 3.5452 17.938 3.34341V2.30972H21.0376C21.6204 2.30972 22.0946 2.78391 22.0946 3.36675V6.63066ZM5.67001 13.0888H3.99591C3.61745 13.0888 3.30952 13.3967 3.30952 13.7752V15.4493C3.30952 15.8277 3.61745 16.1356 3.99591 16.1356H5.67001C6.04848 16.1356 6.3564 15.8277 6.3564 15.4493V13.7752C6.3564 13.3966 6.04848 13.0888 5.67001 13.0888ZM5.65327 15.4325H4.01265V13.7919H5.65327V15.4325ZM8.77323 11.7869H10.4473C10.8258 11.7869 11.1337 11.479 11.1337 11.1005V9.42642C11.1337 9.04795 10.8258 8.74003 10.4473 8.74003H8.77323C8.39476 8.74003 8.08684 9.04795 8.08684 9.42642V11.1005C8.08684 11.479 8.39476 11.7869 8.77323 11.7869ZM8.78996 9.44316H10.4306V11.0838H8.78996V9.44316ZM13.5669 19.7812C13.5581 19.5948 13.4042 19.4464 13.2157 19.4464C13.0215 19.4464 12.8641 19.6038 12.8641 19.798C12.8641 20.1765 13.172 20.4844 13.5505 20.4844H15.2246C15.6031 20.4844 15.911 20.1765 15.911 19.798V18.1239C15.911 17.7454 15.6031 17.4375 15.2246 17.4375H13.5505C13.172 17.4375 12.8641 17.7454 12.8641 18.1239V18.6067C12.8641 18.8009 13.0215 18.9583 13.2157 18.9583C13.4098 18.9583 13.5672 18.8009 13.5672 18.6067V18.1406H15.2079V19.7812H13.5669ZM8.77323 16.1356H10.4473C10.8258 16.1356 11.1337 15.8277 11.1337 15.4493V13.7752C11.1337 13.3967 10.8258 13.0888 10.4473 13.0888H8.77323C8.39476 13.0888 8.08684 13.3967 8.08684 13.7752V15.4493C8.08684 15.8277 8.39476 16.1356 8.77323 16.1356ZM8.78996 13.7919H10.4306V15.4325H8.78996V13.7919ZM8.77323 20.4844H10.4473C10.8258 20.4844 11.1337 20.1765 11.1337 19.798V18.1239C11.1337 17.7454 10.8258 17.4375 10.4473 17.4375H8.77323C8.39476 17.4375 8.08684 17.7454 8.08684 18.1239V19.798C8.08684 20.1765 8.39476 20.4844 8.77323 20.4844ZM8.78996 18.1406H10.4306V19.7812H8.78996V18.1406Z" fill="white"/>
</g>
<defs>
<clipPath id="clip0_488_2333">
<rect width="24" height="24" fill="white"/>
</clipPath>
</defs>
</svg>
