<svg width="40" height="40" viewBox="0 0 40 40" fill="none" xmlns="http://www.w3.org/2000/svg">
<path d="M24.8438 16.548C23.5302 16.548 22.2543 16.8029 21.0518 17.3055C20.6537 17.4719 20.4658 17.9298 20.632 18.3281C20.7984 18.7266 21.256 18.9144 21.6541 18.7482C22.6649 18.3256 23.738 18.1114 24.8438 18.1114C29.4101 18.1114 33.125 21.8287 33.125 26.3978C33.125 30.9669 29.4101 34.6842 24.8438 34.6842C20.2774 34.6842 16.5625 30.9669 16.5625 26.3978C16.5625 25.2931 16.7759 24.2207 17.197 23.2107C17.3631 22.8122 17.1748 22.3545 16.7766 22.1883C16.3787 22.0223 15.9209 22.2104 15.7548 22.6088C15.254 23.8106 15 25.0854 15 26.3978C15 31.8291 19.4159 36.2477 24.8438 36.2477C30.2717 36.2477 34.6875 31.8291 34.6875 26.3978C34.6875 20.9666 30.2717 16.548 24.8438 16.548Z" fill="#3F3F3F"/>
<path d="M24.8438 32.8081C28.3762 32.8081 31.25 29.9324 31.25 26.3978C31.25 22.8632 28.3762 19.9876 24.8438 19.9876C21.3113 19.9876 18.4375 22.8632 18.4375 26.3978C18.4375 29.9324 21.3114 32.8081 24.8438 32.8081ZM24.8438 21.5511C27.5146 21.5511 29.6875 23.7254 29.6875 26.3978C29.6875 29.0703 27.5146 31.2446 24.8438 31.2446C22.1729 31.2446 20 29.0703 20 26.3978C20 23.7253 22.1729 21.5511 24.8438 21.5511Z" fill="#3F3F3F"/>
<path d="M36.0379 12.7956H33.6613L30.9336 8.17661C30.793 7.93857 30.5372 7.79254 30.261 7.79254H19.4276C19.1513 7.79254 18.8956 7.93857 18.755 8.17661L16.0273 12.7956H11.5625V11.8576C11.5625 10.3057 10.3009 9.04332 8.75002 9.04332C7.19915 9.04332 5.93751 10.3057 5.93751 11.8576V12.7956H3.9622C1.77743 12.7956 0 14.5742 0 16.7604V36.0353C0 38.2215 1.77743 40 3.9622 40H36.0378C38.2226 40 40 38.2215 40 36.0353V16.7604C40.0001 14.5742 38.2226 12.7956 36.0379 12.7956ZM19.8734 9.35601H29.8151L31.8464 12.7956H17.8421L19.8734 9.35601ZM7.50002 11.8576C7.50002 11.1679 8.0608 10.6068 8.75002 10.6068C9.43924 10.6068 10 11.1679 10 11.8576V12.7956H7.50002V11.8576ZM38.4376 36.0353C38.4376 37.3594 37.3611 38.4365 36.0379 38.4365H3.9622C2.63899 38.4365 1.5625 37.3593 1.5625 36.0353V16.7604C1.5625 15.4363 2.63899 14.3591 3.9622 14.3591H36.0378C37.361 14.3591 38.4375 15.4363 38.4375 16.7604V36.0353H38.4376Z" fill="#3F3F3F"/>
<path d="M24.8438 24.8735C25.6838 24.8735 26.3672 25.5573 26.3672 26.3978C26.3672 26.8296 26.717 27.1796 27.1484 27.1796C27.5799 27.1796 27.9297 26.8296 27.9297 26.3978C27.9297 24.6952 26.5453 23.31 24.8438 23.31C24.4123 23.31 24.0625 23.6601 24.0625 24.0917C24.0625 24.5234 24.4123 24.8735 24.8438 24.8735Z" fill="#3F3F3F"/>
<path d="M24.8438 5.73582C25.2752 5.73582 25.625 5.38576 25.625 4.95408V0.781734C25.625 0.350061 25.2752 0 24.8438 0C24.4123 0 24.0625 0.349982 24.0625 0.781734V4.95408C24.0625 5.38584 24.4123 5.73582 24.8438 5.73582Z" fill="#3F3F3F"/>
<path d="M28.5625 5.73508C28.7624 5.73508 28.9624 5.6587 29.1149 5.50611L31.9814 2.63784C32.2865 2.33258 32.2865 1.83758 31.9813 1.53224C31.6762 1.22705 31.1816 1.22705 30.8765 1.53224L28.0101 4.40058C27.705 4.70584 27.705 5.20084 28.0101 5.50618C28.1626 5.65878 28.3626 5.73508 28.5625 5.73508Z" fill="#3F3F3F"/>
<path d="M20.5748 5.50613C20.7273 5.65873 20.9273 5.7351 21.1272 5.7351C21.3271 5.7351 21.5271 5.65873 21.6796 5.50613C21.9847 5.20087 21.9848 4.70587 21.6797 4.40053L18.8132 1.53227C18.5081 1.22716 18.0134 1.22708 17.7083 1.53227C17.4033 1.83754 17.4032 2.33253 17.7083 2.63787L20.5748 5.50613Z" fill="#3F3F3F"/>
<path d="M10.7813 19.2059H6.71875C6.28727 19.2059 5.9375 19.5557 5.9375 19.9871C5.9375 20.4186 6.28727 20.7684 6.71875 20.7684H10.7813C11.2127 20.7684 11.5625 20.4186 11.5625 19.9871C11.5625 19.5556 11.2127 19.2059 10.7813 19.2059Z" fill="#3F3F3F"/>
<path d="M18.4346 20.7683C18.64 20.7683 18.8416 20.6847 18.9869 20.5394C19.1322 20.3941 19.2158 20.1932 19.2158 19.9871C19.2158 19.7816 19.1322 19.58 18.9869 19.4347C18.8416 19.2895 18.64 19.2058 18.4346 19.2058C18.2291 19.2058 18.0275 19.2894 17.8822 19.4347C17.7361 19.58 17.6533 19.7817 17.6533 19.9871C17.6533 20.1925 17.7361 20.3941 17.8822 20.5394C18.0275 20.6847 18.2283 20.7683 18.4346 20.7683Z" fill="#3F3F3F"/>
</svg>
