<svg width="25" height="25" viewBox="0 0 25 25" fill="none" xmlns="http://www.w3.org/2000/svg"><path d="M24.842 3.63611C24.7051 3.46506 24.4979 3.3655 24.2789 3.3655H5.08555L4.54883 1.03982C4.47329 0.712622 4.18193 0.480835 3.84614 0.480835H0.721143C0.3229 0.480835 0 0.803735 0 1.20203C0 1.60032 0.3229 1.92317 0.721143 1.92317H3.27246L6.91563 17.7103C6.99111 18.0375 7.28252 18.2693 7.61831 18.2693H22.0673C22.4656 18.2693 22.7884 17.9464 22.7884 17.5482C22.7884 17.1499 22.4655 16.827 22.0673 16.827H8.19204L7.63735 14.4232H22.1154C22.4527 14.4232 22.745 14.1894 22.819 13.8603L24.9824 4.24495C25.0305 4.03118 24.9789 3.8072 24.842 3.63611ZM21.5385 12.9808H7.30449L5.41841 4.80779H23.3774L21.5385 12.9808Z" fill="#3F3F3F"/><path d="M10.5769 19.2307C9.11885 19.2307 7.93262 20.4169 7.93262 21.875C7.93262 23.333 9.1188 24.5192 10.5769 24.5192C12.0349 24.5192 13.2211 23.333 13.2211 21.875C13.2211 20.4169 12.0349 19.2307 10.5769 19.2307ZM10.5769 23.0769C9.91411 23.0769 9.37495 22.5377 9.37495 21.875C9.37495 21.2122 9.91411 20.673 10.5769 20.673C11.2396 20.673 11.7788 21.2122 11.7788 21.875C11.7788 22.5377 11.2396 23.0769 10.5769 23.0769Z" fill="#3F3F3F"/><path d="M19.2312 19.2307C17.7731 19.2307 16.5869 20.4169 16.5869 21.875C16.5869 23.333 17.7731 24.5192 19.2312 24.5192C20.6892 24.5192 21.8754 23.333 21.8754 21.875C21.8754 20.4169 20.6892 19.2307 19.2312 19.2307ZM19.2312 23.0769C18.5684 23.0769 18.0292 22.5377 18.0292 21.875C18.0292 21.2123 18.5684 20.6731 19.2312 20.6731C19.8939 20.6731 20.4331 21.2123 20.4331 21.875C20.4331 22.5377 19.8939 23.0769 19.2312 23.0769Z" fill="#3F3F3F"/></svg>