<svg width="40" height="30" viewBox="0 0 40 30" fill="none" xmlns="http://www.w3.org/2000/svg">
<path d="M39.7472 5.81772C39.5282 5.54405 39.1967 5.38476 38.8462 5.38476H8.13688L7.27813 1.66366C7.15727 1.14015 6.69109 0.769287 6.15383 0.769287H1.15383C0.516641 0.769287 0 1.28593 0 1.92319C0 2.56046 0.516641 3.07702 1.15383 3.07702H5.23594L11.065 28.3365C11.1858 28.86 11.652 29.2308 12.1893 29.2308H35.3077C35.9449 29.2308 36.4615 28.7142 36.4615 28.077C36.4615 27.4398 35.9448 26.9232 35.3077 26.9232H13.1073L12.2198 23.077H35.3847C35.9244 23.077 36.392 22.703 36.5104 22.1765L39.9719 6.79186C40.0488 6.44983 39.9662 6.09147 39.7472 5.81772ZM34.4616 20.7693H11.6872L8.66945 7.69241H37.4038L34.4616 20.7693Z" fill="#3F3F3F"/>
</svg>
