<svg width="54" height="66" viewBox="0 0 54 66" fill="none" xmlns="http://www.w3.org/2000/svg">
<path d="M33.25 2H8.25C6.5924 2 5.00268 2.65321 3.83058 3.81594C2.65848 4.97866 2 6.55566 2 8.2V57.8C2 59.4443 2.65848 61.0213 3.83058 62.1841C5.00268 63.3468 6.5924 64 8.25 64H45.75C47.4076 64 48.9973 63.3468 50.1694 62.1841C51.3415 61.0213 52 59.4443 52 57.8V20.6L33.25 2Z" stroke="#EB7001" stroke-width="4" stroke-linecap="round" stroke-linejoin="round"/>
<path d="M33.25 2V20.6H52" stroke="#EB7001" stroke-width="4" stroke-linecap="round" stroke-linejoin="round"/>
<path d="M39.5 36.1H14.5" stroke="#EB7001" stroke-width="4" stroke-linecap="round" stroke-linejoin="round"/>
<path d="M39.5 48.5H14.5" stroke="#EB7001" stroke-width="4" stroke-linecap="round" stroke-linejoin="round"/>
<path d="M13.8 25.464V23.324H12.2V21.384H13.8V19.824H12.2V17.344H13.8V11.184H18.36C20.2 11.184 21.54 11.5573 22.38 12.304C23.2333 13.0507 23.66 14.0773 23.66 15.384C23.66 16.1573 23.4867 16.884 23.14 17.564C22.7933 18.244 22.2133 18.7907 21.4 19.204C20.6 19.6173 19.5067 19.824 18.12 19.824H16.82V21.384H19.9V23.324H16.82V25.464H13.8ZM17.82 17.344C18.6733 17.344 19.3467 17.1973 19.84 16.904C20.3467 16.6107 20.6 16.1373 20.6 15.484C20.6 14.2707 19.8 13.664 18.2 13.664H16.82V17.344H17.82Z" fill="#EB7001"/>
</svg>
