<svg width="16" height="14" viewBox="0 0 16 14" fill="none" xmlns="http://www.w3.org/2000/svg">
<path d="M13.9205 2.06892C13.5784 1.73004 13.1722 1.46122 12.7252 1.27781C12.2782 1.0944 11.799 1 11.3151 1C10.8312 1 10.3521 1.0944 9.90504 1.27781C9.45801 1.46122 9.05185 1.73004 8.70976 2.06892L7.99982 2.77189L7.28988 2.06892C6.5989 1.38473 5.66172 1.00035 4.68453 1.00035C3.70733 1.00035 2.77016 1.38473 2.07917 2.06892C1.38819 2.75312 1 3.68108 1 4.64868C1 5.61627 1.38819 6.54424 2.07917 7.22843L2.78911 7.9314L7.99982 13.0909L13.2105 7.9314L13.9205 7.22843C14.2627 6.88971 14.5342 6.48754 14.7194 6.0449C14.9047 5.60226 15 5.12781 15 4.64868C15 4.16954 14.9047 3.6951 14.7194 3.25246C14.5342 2.80981 14.2627 2.40765 13.9205 2.06892V2.06892Z" stroke="white" stroke-linecap="round" stroke-linejoin="round"/>
</svg>
