<svg width="253" height="211" viewBox="0 0 253 211" fill="none" xmlns="http://www.w3.org/2000/svg">
<path d="M309.831 -79.3809C303.283 -84.2511 294.104 -83.1216 288.931 -76.8115C288.912 -76.7868 288.892 -76.7621 288.871 -76.7368C270.11 -52.8591 145.912 105.204 133.033 121.597C131.84 123.115 130.049 123.986 128.118 123.986H97.3187C94.7617 123.986 92.6898 126.058 92.6898 128.614C92.6898 131.171 94.7617 133.243 97.3187 133.243H100.921V167.909H81.3638C79.9326 164.185 75.8122 161.833 72.1153 160.384V133.243H75.7178C78.2748 133.243 80.3467 131.171 80.3467 128.614C80.3467 126.058 78.2748 123.986 75.7178 123.986H48.5134C35.5994 123.986 24.7918 134.473 24.7918 147.707C24.7918 153.28 24.714 154.481 25.0763 156.821C13.5053 158.312 0 161.947 0 170.786V195.402C0 209.981 36.7529 210.402 40.9436 210.402C45.1343 210.402 81.8872 209.981 81.8872 195.402V177.167C88.8472 177.167 136.586 177.167 142.847 177.167C147.864 177.167 152.558 174.701 155.406 170.57C157.476 167.566 216.336 82.1717 224.749 69.9643C226.201 67.8591 225.67 64.9768 223.565 63.5258C221.462 62.0748 218.578 62.605 217.127 64.7102L171.329 131.155L165.357 95.4418L239.989 0.459763L254.246 10.8569L229.418 46.8784C227.966 48.9837 228.497 51.8659 230.602 53.3169C232.706 54.7686 235.59 54.2378 237.04 52.1326L313.286 -58.4872C317.968 -65.2794 316.45 -74.4569 309.831 -79.3809ZM34.0496 147.706C34.0496 139.561 40.7473 133.243 48.5134 133.243H62.8568V157.793C55.279 156.277 44.6196 155.427 34.323 155.953C33.9669 154.097 34.0496 153.155 34.0496 147.706ZM40.9436 165.042C49.641 165.042 66.3612 166.489 72.1375 170.814C69.1719 173.143 57.8292 176.528 40.9436 176.528C23.9895 176.528 12.6202 173.114 9.71144 170.785C15.0779 166.488 32.2338 165.042 40.9436 165.042ZM72.6294 194.97C70.6951 197.281 58.9803 201.144 40.9436 201.144C22.9069 201.144 11.1915 197.281 9.25781 194.97V180.98C24.6431 187.326 57.2645 187.318 72.6294 180.98V194.97ZM147.783 165.315C146.664 166.938 144.819 167.908 142.847 167.908H110.178V133.243H128.117C132.908 133.243 137.353 131.083 140.312 127.316L157.617 105.292L163.774 142.114C156.96 152.002 158.607 149.612 147.783 165.315ZM259.501 3.23154L245.712 -6.8243L253.327 -16.516C266.16 -7.15695 264.127 -8.64006 266.494 -6.91317L259.501 3.23154ZM271.75 -14.5385L259.051 -23.8L266.666 -33.4911L278.743 -24.6832L271.75 -14.5385ZM305.663 -63.7413L283.998 -32.308L272.388 -40.7752L296.117 -70.9741C298.155 -73.4269 301.743 -73.8589 304.305 -71.953C306.907 -70.0181 307.503 -66.4107 305.663 -63.7413Z" fill="white"/>
</svg>
