<svg width="14" height="14" viewBox="0 0 14 14" fill="none" xmlns="http://www.w3.org/2000/svg"><path d="M7.11254 3.58028C5.15711 3.58028 3.57899 5.15844 3.57899 7.1139C3.57899 9.06937 5.15711 10.6475 7.11254 10.6475C9.06797 10.6475 10.6461 9.06937 10.6461 7.1139C10.6461 5.15844 9.06797 3.58028 7.11254 3.58028ZM7.11254 9.4105C5.84797 9.4105 4.81599 8.3785 4.81599 7.1139C4.81599 5.84931 5.84797 4.81731 7.11254 4.81731C8.37711 4.81731 9.40909 5.84931 9.40909 7.1139C9.40909 8.3785 8.37711 9.4105 7.11254 9.4105ZM10.7908 2.61203C10.3343 2.61203 9.96557 2.98072 9.96557 3.43728C9.96557 3.89385 10.3343 4.26254 10.7908 4.26254C11.2474 4.26254 11.6161 3.89557 11.6161 3.43728C11.6162 3.32887 11.5949 3.2215 11.5535 3.12131C11.5121 3.02112 11.4513 2.93009 11.3747 2.85344C11.298 2.77678 11.207 2.71599 11.1068 2.67457C11.0066 2.63314 10.8992 2.61189 10.7908 2.61203ZM14.0005 7.1139C14.0005 6.16288 14.0091 5.22046 13.9557 4.27116C13.9023 3.16852 13.6507 2.18992 12.8444 1.38361C12.0364 0.575584 11.0596 0.325767 9.95696 0.272358C9.00595 0.218949 8.06355 0.227563 7.11426 0.227563C6.16325 0.227563 5.22086 0.218949 4.27157 0.272358C3.16895 0.325767 2.19037 0.577307 1.38408 1.38361C0.576066 2.19164 0.326254 3.16852 0.272845 4.27116C0.219437 5.22219 0.228052 6.1646 0.228052 7.1139C0.228052 8.06321 0.219437 9.00735 0.272845 9.95665C0.326254 11.0593 0.577789 12.0379 1.38408 12.8442C2.1921 13.6522 3.16895 13.902 4.27157 13.9555C5.22258 14.0089 6.16498 14.0002 7.11426 14.0002C8.06527 14.0002 9.00767 14.0089 9.95696 13.9555C11.0596 13.902 12.0382 13.6505 12.8444 12.8442C13.6525 12.0362 13.9023 11.0593 13.9557 9.95665C14.0108 9.00735 14.0005 8.06493 14.0005 7.1139ZM12.4844 11.1765C12.3586 11.49 12.207 11.7243 11.9641 11.9655C11.7212 12.2085 11.4886 12.3601 11.175 12.4858C10.2688 12.8459 8.11696 12.7649 7.11254 12.7649C6.10812 12.7649 3.95457 12.8459 3.04835 12.4876C2.73479 12.3618 2.50048 12.2102 2.25929 11.9673C2.01637 11.7243 1.86475 11.4917 1.73899 11.1782C1.38064 10.2702 1.46161 8.11834 1.46161 7.1139C1.46161 6.10947 1.38064 3.95587 1.73899 3.04964C1.86475 2.73607 2.01637 2.50176 2.25929 2.26056C2.50221 2.01936 2.73479 1.86602 3.04835 1.74025C3.95457 1.38189 6.10812 1.46287 7.11254 1.46287C8.11696 1.46287 10.2705 1.38189 11.1767 1.74025C11.4903 1.86602 11.7246 2.01763 11.9658 2.26056C12.2087 2.50348 12.3603 2.73607 12.4861 3.04964C12.8444 3.95587 12.7635 6.10947 12.7635 7.1139C12.7635 8.11834 12.8444 10.2702 12.4844 11.1765Z" fill="white"/></svg>