<svg width="403" height="499" viewBox="0 0 403 499" fill="none" xmlns="http://www.w3.org/2000/svg">
<path d="M168.927 215.68C163.359 209.6 163.382 199.685 168.927 193.629L177.313 184.474C182.799 178.489 191.874 178.32 197.513 184.474C199.329 186.456 245.648 237.02 247.655 239.21C253.225 245.292 253.226 255.18 247.654 261.262L239.269 270.416C233.698 276.498 224.638 276.497 219.069 270.416C201.086 250.785 186.54 234.908 168.927 215.68ZM198.086 226.866C198.298 227.094 198.55 227.143 198.726 227.143C198.902 227.143 199.157 227.094 199.371 226.862L207.757 217.708C208.099 217.334 208.1 216.677 207.757 216.302L188.058 194.797C187.886 194.61 187.65 194.516 187.413 194.516C187.176 194.516 186.941 194.61 186.768 194.797L178.383 203.951C178.039 204.326 178.039 204.984 178.383 205.359L198.086 226.866ZM228.525 260.095C228.869 260.469 229.47 260.468 229.814 260.095L238.199 250.94C238.543 250.565 238.543 249.908 238.199 249.533L217.823 227.29C217.623 227.538 217.429 227.791 217.212 228.029L208.826 237.183C208.61 237.42 208.378 237.633 208.151 237.853L228.525 260.095Z" fill="#C5D2DA" fill-opacity="0.35"/>
<path d="M263.973 277.909L271.57 286.203C274.182 289.053 274.182 293.674 271.571 296.524C270.265 297.95 268.554 298.662 266.843 298.662C265.132 298.662 263.42 297.95 262.115 296.524L254.518 288.231C251.906 285.38 251.906 280.76 254.517 277.909C257.129 275.06 261.363 275.059 263.973 277.909Z" fill="#C5D2DA" fill-opacity="0.35"/>
<path d="M390.481 482.102C373.889 500.215 346.811 500.305 330.119 482.3L248.205 393.948C236.768 381.613 218.217 381.676 206.851 394.084C195.338 406.65 195.393 427.007 206.976 439.5L249.842 485.735C252.469 488.568 252.494 493.19 249.898 496.057C247.304 498.924 243.071 498.953 240.443 496.118L197.577 449.883C180.714 431.693 180.635 402.059 197.395 383.761C213.946 365.693 240.953 365.606 257.604 383.564L339.518 471.916C350.995 484.297 369.615 484.236 381.026 471.78C392.531 459.218 392.531 438.892 381.025 426.332L356.335 399.378C349.587 406.024 339.318 405.681 332.956 398.737L315.592 379.782C306.683 385.264 295.387 384.086 287.559 376.373L210.162 300.09C207.421 297.388 207.206 292.773 209.68 289.781C212.154 286.789 216.383 286.555 219.124 289.255L296.521 365.538C300.785 369.742 307.309 369.561 311.373 365.124L311.492 364.994C311.493 364.992 311.495 364.991 311.496 364.989L334.287 340.109C334.289 340.106 334.293 340.103 334.296 340.1L334.411 339.974C338.474 335.539 338.641 328.417 334.79 323.76L191.141 150.076C190.748 150.594 137.922 208.261 137.447 208.694C137.436 208.704 137.427 208.717 137.415 208.727L195.933 266.401C198.673 269.102 198.889 273.718 196.414 276.71C193.94 279.702 189.711 279.936 186.971 277.236L122.779 213.969C117.613 213.654 112.805 211.32 109.134 207.314L100.779 198.193C97.9389 199.396 94.8936 200.036 91.7583 200.044H91.5479C67.4655 200.044 44.732 189.935 27.5149 171.565C-3.70737 138.252 -8.99918 85.0968 14.9343 45.1724C16.9571 41.7994 21.1007 40.8535 24.1896 43.0616C27.2795 45.2688 28.146 49.793 26.1233 53.166C5.67899 87.2709 10.1952 132.675 36.862 161.126C51.5669 176.815 70.9797 185.447 91.5497 185.447C91.6086 185.447 91.671 185.447 91.7298 185.447C94.9284 185.44 97.84 184.035 99.9724 181.706L166.388 109.204C168.516 106.884 169.809 103.708 169.816 100.209C169.864 77.3134 161.723 55.7878 146.893 39.5991C119.464 9.65651 76.6273 6.58518 46.038 30.5272C43.039 32.8764 38.8598 32.1251 36.7078 28.8484C34.5566 25.5718 35.2449 21.0125 38.2465 18.6642C74.1828 -9.46535 124.313 -5.69528 156.349 29.2747C173.713 48.2301 183.244 73.4324 183.188 100.24C183.181 103.662 182.595 106.984 181.493 110.083L189.849 119.205C193.632 123.336 195.644 128.664 195.931 134.083L344.717 313.978C351.831 322.581 352.818 334.938 347.84 344.58L365.204 363.535C371.62 370.539 371.802 381.784 365.79 389.055L390.481 416.009C407.173 434.232 407.173 463.881 390.481 482.102ZM180.392 129.527L173.537 122.043L111.736 189.507L118.592 196.991C121.515 200.183 126.324 200.233 129.302 197.07C129.328 197.043 129.356 197.019 129.381 196.991L180.392 141.306C180.401 141.296 180.409 141.286 180.418 141.275C183.353 138.035 183.358 132.764 180.392 129.527ZM355.747 373.857L339.016 355.593L325.68 370.151L342.412 388.415C343.822 389.955 346.116 389.955 347.528 388.415C350.589 385.073 352.69 382.778 355.747 379.442C357.159 377.903 357.159 375.398 355.747 373.857Z" fill="#C5D2DA" fill-opacity="0.35"/>
</svg>
