<svg width="40" height="40" viewBox="0 0 40 40" fill="none" xmlns="http://www.w3.org/2000/svg">
<g clip-path="url(#clip0_482_748)">
<path d="M31.9061 10.0721C32.211 9.76659 32.211 9.2719 31.9061 8.96733C31.6006 8.66185 31.1062 8.66185 30.8014 8.96733C30.4959 9.2719 30.4959 9.76659 30.8014 10.0721C31.1062 10.3766 31.6006 10.3766 31.9061 10.0721Z" fill="#3F3F3F"/>
<path d="M10.1962 11.6898C10.501 11.3852 10.501 10.8905 10.1962 10.5851C9.89067 10.2805 9.39629 10.2805 9.09142 10.5851C8.78593 10.8905 8.78593 11.3852 9.09142 11.6898C9.39629 11.9953 9.89067 11.9953 10.1962 11.6898Z" fill="#3F3F3F"/>
<path d="M5.59635 16.1884L7.93461 13.8492C8.23978 13.544 8.23948 13.0496 7.93461 12.7445C7.62943 12.4393 7.13474 12.4396 6.82957 12.7445L4.49131 15.0836C4.18644 15.3888 4.18644 15.8835 4.49162 16.1884C4.79649 16.4935 5.29118 16.4935 5.59635 16.1884Z" fill="#3F3F3F"/>
<path d="M34.4835 13.9227C34.7887 14.2279 35.2833 14.2279 35.5885 13.9227C35.8937 13.6179 35.8937 13.1232 35.5885 12.818L34.03 11.2595C33.7248 10.9543 33.2301 10.9543 32.9249 11.2595C32.6201 11.5643 32.6201 12.059 32.9249 12.3642L34.4835 13.9227Z" fill="#3F3F3F"/>
<path d="M39.7711 13.0524L30.9335 4.21331C30.6351 3.91454 30.1529 3.90722 29.8456 4.19713C29.1592 4.8438 25.9332 7.88182 25.8865 7.9273C25.8838 7.93004 25.8807 7.93248 25.878 7.93523C25.1138 8.69939 24.3616 9.03997 23.4387 9.03997C21.5521 9.03997 20.1068 9.5728 18.9066 10.7096C17.9224 9.77758 16.8069 9.2957 15.2502 9.13488L11.3446 5.22893C11.0394 4.92376 10.5447 4.92376 10.2396 5.22893L0.228885 15.2399C-0.068356 15.5369 -0.0781216 16.0166 0.21149 16.3257C0.217594 16.3321 0.222782 16.3386 0.228885 16.3447C0.228885 16.3447 6.74317 22.8489 6.75232 22.8577L6.47644 23.1336C5.40833 24.2017 5.40772 25.9314 6.47675 27.0005C6.98273 27.5058 7.67792 27.8061 8.43842 27.7985C8.43018 28.5489 8.7201 29.2438 9.2389 29.7626C9.76593 30.2897 10.4703 30.5692 11.2006 30.5616C11.1926 31.3114 11.4822 32.006 12.001 32.5248C12.507 33.0301 13.2019 33.3304 13.9627 33.3228C13.9545 34.0732 14.2444 34.7681 14.7632 35.2869C15.8292 36.3529 17.5635 36.3529 18.6298 35.2869L18.9063 35.0104L19.1827 35.2869C20.2487 36.3529 21.983 36.3529 23.0493 35.2869C23.5669 34.7693 23.8574 34.0757 23.8501 33.3243C24.5963 33.332 25.2914 33.0448 25.8118 32.5245C26.3519 31.9843 26.618 31.2723 26.6107 30.5628C27.3682 30.5707 28.0603 30.2759 28.5736 29.7626C29.0933 29.2432 29.3826 28.5471 29.3741 27.7985C30.1001 27.8058 30.806 27.53 31.3361 27.0002C32.4045 25.9318 32.4045 24.2023 31.3361 23.1336L31.0605 22.858C36.5076 17.417 29.617 24.3131 39.7711 14.1572C40.0763 13.852 40.0763 13.3576 39.7711 13.0524ZM1.88629 15.792L10.7922 6.88634L13.7936 9.88775L4.88953 18.7931L1.88629 15.792ZM7.58118 25.8954C7.12342 25.4377 7.12342 24.6964 7.58118 24.2383L10.3436 21.4759C10.8008 21.019 11.5439 21.0193 12.0007 21.4759C12.4594 21.9349 12.4594 22.6749 12.0007 23.1336L9.2392 25.8951C8.78205 26.3517 8.03803 26.3517 7.58118 25.8954ZM10.3436 28.6579C9.88556 28.1995 9.88495 27.4585 10.3436 27.0002L13.1055 24.2383C13.5642 23.78 14.3045 23.7797 14.7632 24.2383C15.22 24.6952 15.2219 25.4368 14.7632 25.8951C14.7629 25.8954 14.7629 25.8954 14.7629 25.8957L12.0007 28.6579C11.5439 29.1147 10.8005 29.1147 10.3436 28.6579ZM13.1055 31.4194C12.6477 30.962 12.6477 30.2204 13.1055 29.7626L15.8679 27.0002C16.3248 26.5433 17.0679 26.5433 17.5253 27.0008C17.9764 27.4509 17.9898 28.1925 17.525 28.6576C17.525 28.6576 17.525 28.6576 17.5247 28.6579L14.7635 31.4191C14.3063 31.876 13.5623 31.876 13.1055 31.4194ZM15.8679 34.1822C15.4099 33.7238 15.4092 32.9828 15.8679 32.5245L18.6298 29.7626C19.0878 29.3046 19.8288 29.3039 20.2872 29.7626C20.7483 30.2237 20.7416 30.9656 20.2872 31.4197L17.525 34.1822C17.0679 34.6387 16.3248 34.6387 15.8679 34.1822ZM21.9443 34.1822C21.4877 34.639 20.7443 34.639 20.2875 34.1822L20.011 33.9057L21.3922 32.5245C21.4856 32.4311 21.5698 32.3313 21.648 32.2278L21.944 32.5242C21.9443 32.5242 21.9443 32.5242 21.9446 32.5245L21.9449 32.5248C22.403 32.9828 22.403 33.7235 21.9443 34.1822ZM30.2313 25.8951C29.7742 26.3517 29.0305 26.3517 28.5736 25.8951L24.9829 22.3047C24.6777 21.9996 24.183 21.9996 23.8779 22.3047C23.573 22.6096 23.573 23.1043 23.8779 23.4095L27.4689 27.0005C27.9269 27.4582 27.9272 28.1992 27.4686 28.6579C27.0099 29.1166 26.2686 29.1147 25.8118 28.6579L22.2211 25.0663C21.9162 24.7614 21.4215 24.7614 21.1163 25.0663C20.8112 25.3715 20.8112 25.8661 21.116 26.1713L24.7067 29.7626C25.1636 30.2195 25.1636 30.9629 24.7067 31.4194C24.4858 31.6407 24.1913 31.7627 23.8779 31.7627C23.1354 31.7627 22.8961 31.178 22.1921 30.5625C22.1851 29.8429 21.9019 29.1675 21.3925 28.6582C20.8743 28.1394 20.1804 27.8498 19.4305 27.8571C19.4382 27.1061 19.1473 26.4121 18.6298 25.8951C18.0896 25.355 17.3776 25.0892 16.6681 25.0965C16.6837 23.5557 15.4358 22.3173 13.9063 22.3331C13.9139 21.5741 13.6173 20.8829 13.1055 20.3711C12.0395 19.3049 10.3049 19.3049 9.2389 20.3711L7.85706 21.753L5.99549 19.8969L15.1904 10.7004C16.329 10.8304 17.0956 11.1579 17.7985 11.8113L15.5911 14.0183C14.3738 15.2366 14.3738 17.219 15.5914 18.4379C16.81 19.6555 18.7927 19.6558 20.011 18.4376L22.2211 16.2278C23.6493 17.6563 29.1901 23.1974 30.231 24.2386C30.6879 24.6952 30.6879 25.4386 30.2313 25.8951ZM29.9554 21.753L23.3258 15.123L23.8782 14.5707C24.1834 14.2655 24.1834 13.7708 23.8782 13.4656C23.573 13.1608 23.0786 13.1608 22.7731 13.4656L18.9059 17.3331C18.2971 17.9419 17.3053 17.9419 16.6962 17.3331C16.0873 16.7237 16.0873 15.7322 16.6959 15.123C17.4973 14.3219 19.0768 12.7427 19.8773 11.9425C20.8038 11.016 21.9025 10.6025 23.4387 10.6025C24.5438 10.6025 25.4977 10.2704 26.3916 9.56731L34.1708 17.5486C29.0857 22.6206 30.0894 21.6193 29.9554 21.753ZM35.2759 16.4435L27.5446 8.5114L30.365 5.85424L38.114 13.6048L35.2759 16.4435Z" fill="#3F3F3F"/>
</g>
<defs>
<clipPath id="clip0_482_748">
<rect width="40" height="40" fill="white"/>
</clipPath>
</defs>
</svg>
