<svg width="28" height="29" viewBox="0 0 28 29" fill="none" xmlns="http://www.w3.org/2000/svg">
<path d="M22.408 0.792014H20.572L5.272 28.152H7.144L22.408 0.792014ZM6.244 1.51202C2.608 1.51202 0.448 3.99601 0.448 8.24401C0.448 12.672 2.464 15.084 6.136 15.084C9.772 15.084 11.86 12.528 11.86 8.10001C11.86 3.85202 9.88 1.51202 6.244 1.51202ZM6.172 3.06001C8.62 3.06001 9.916 4.82401 9.916 8.17202C9.916 11.592 8.548 13.536 6.136 13.536C3.76 13.536 2.428 11.7 2.428 8.38801C2.428 4.93201 3.724 3.06001 6.172 3.06001ZM22.084 13.896C18.448 13.896 16.288 16.38 16.288 20.628C16.288 25.056 18.304 27.468 21.976 27.468C25.612 27.468 27.7 24.912 27.7 20.484C27.7 16.236 25.72 13.896 22.084 13.896ZM22.012 15.444C24.46 15.444 25.756 17.208 25.756 20.556C25.756 23.976 24.388 25.92 21.976 25.92C19.6 25.92 18.268 24.084 18.268 20.772C18.268 17.316 19.564 15.444 22.012 15.444Z" fill="#3F3F3F"/>
</svg>
