<svg width="19" height="19" viewBox="0 0 19 19" fill="none" xmlns="http://www.w3.org/2000/svg">
<path d="M14.6724 0.527999H13.4484L3.24839 18.768H4.49639L14.6724 0.527999ZM3.89639 1.008C1.47239 1.008 0.0323907 2.664 0.0323907 5.496C0.0323907 8.448 1.37639 10.056 3.82439 10.056C6.24839 10.056 7.64039 8.352 7.64039 5.4C7.64039 2.568 6.32039 1.008 3.89639 1.008ZM3.84839 2.04C5.48039 2.04 6.34439 3.216 6.34439 5.448C6.34439 7.728 5.43239 9.024 3.82439 9.024C2.24039 9.024 1.35239 7.8 1.35239 5.592C1.35239 3.288 2.21639 2.04 3.84839 2.04ZM14.4564 9.264C12.0324 9.264 10.5924 10.92 10.5924 13.752C10.5924 16.704 11.9364 18.312 14.3844 18.312C16.8084 18.312 18.2004 16.608 18.2004 13.656C18.2004 10.824 16.8804 9.264 14.4564 9.264ZM14.4084 10.296C16.0404 10.296 16.9044 11.472 16.9044 13.704C16.9044 15.984 15.9924 17.28 14.3844 17.28C12.8004 17.28 11.9124 16.056 11.9124 13.848C11.9124 11.544 12.7764 10.296 14.4084 10.296Z" fill="white"/>
</svg>
