<svg width="36" height="36" viewBox="0 0 36 36" fill="none" xmlns="http://www.w3.org/2000/svg"><path d="M22.3594 14.8951C21.1771 14.8951 20.0289 15.1244 18.9466 15.5765C18.5883 15.7262 18.4192 16.138 18.5688 16.4963C18.7185 16.8547 19.1303 17.0236 19.4887 16.8741C20.3984 16.494 21.3642 16.3014 22.3594 16.3014C26.4691 16.3014 29.8125 19.6449 29.8125 23.7545C29.8125 27.8641 26.4691 31.2076 22.3594 31.2076C18.2497 31.2076 14.9063 27.8641 14.9063 23.7545C14.9063 22.7609 15.0983 21.7963 15.4773 20.8879C15.6267 20.5294 15.4574 20.1177 15.099 19.9683C14.7408 19.819 14.3288 19.9882 14.1794 20.3465C13.7286 21.4275 13.5 22.574 13.5 23.7545C13.5 28.6396 17.4743 32.6139 22.3594 32.6139C27.2445 32.6139 31.2188 28.6396 31.2188 23.7545C31.2188 18.8694 27.2445 14.8951 22.3594 14.8951Z" fill="white"/><path d="M22.3594 29.5201C25.5386 29.5201 28.125 26.9337 28.125 23.7545C28.125 20.5753 25.5386 17.9889 22.3594 17.9889C19.1802 17.9889 16.5938 20.5753 16.5938 23.7545C16.5938 26.9337 19.1803 29.5201 22.3594 29.5201ZM22.3594 19.3951C24.7632 19.3951 26.7188 21.3508 26.7188 23.7545C26.7188 26.1582 24.7632 28.1139 22.3594 28.1139C19.9556 28.1139 18 26.1583 18 23.7545C18 21.3507 19.9556 19.3951 22.3594 19.3951Z" fill="white"/><path d="M32.434 11.5201H30.2951L27.8402 7.36559C27.7137 7.15148 27.4835 7.02014 27.2348 7.02014H17.4848C17.2361 7.02014 17.006 7.15148 16.8795 7.36559L14.4245 11.5201H10.4062V10.6764C10.4062 9.28062 9.27077 8.14514 7.875 8.14514C6.47923 8.14514 5.34375 9.28062 5.34375 10.6764V11.5201H3.56597C1.59968 11.5201 0 13.1198 0 15.0862V32.4229C0 34.3892 1.59968 35.9889 3.56597 35.9889H32.434C34.4002 35.9889 35.9999 34.3892 35.9999 32.4229V15.0862C36 13.1198 34.4002 11.5201 32.434 11.5201ZM17.886 8.42639H26.8336L28.6617 11.5201H16.0579L17.886 8.42639ZM6.75 10.6764C6.75 10.0561 7.2547 9.55139 7.875 9.55139C8.4953 9.55139 9 10.0561 9 10.6764V11.5201H6.75V10.6764ZM34.5938 32.4229C34.5938 33.6138 33.6249 34.5826 32.434 34.5826H3.56597C2.37509 34.5826 1.40625 33.6137 1.40625 32.4229V15.0862C1.40625 13.8952 2.37509 12.9264 3.56597 12.9264H32.434C33.6248 12.9264 34.5937 13.8952 34.5937 15.0862V32.4229H34.5938Z" fill="white"/><path d="M22.3604 22.3834C23.1164 22.3834 23.7314 22.9985 23.7314 23.7545C23.7314 24.1429 24.0462 24.4576 24.4346 24.4576C24.8229 24.4576 25.1377 24.1429 25.1377 23.7545C25.1377 22.2231 23.8918 20.9772 22.3604 20.9772C21.972 20.9772 21.6572 21.292 21.6572 21.6803C21.6572 22.0686 21.972 22.3834 22.3604 22.3834Z" fill="white"/><path d="M22.3604 5.17027C22.7487 5.17027 23.0635 4.85541 23.0635 4.46714V0.714355C23.0635 0.32609 22.7487 0.0112305 22.3604 0.0112305C21.972 0.0112305 21.6572 0.32602 21.6572 0.714355V4.46714C21.6572 4.85548 21.972 5.17027 22.3604 5.17027Z" fill="white"/><path d="M25.706 5.17029C25.886 5.17029 26.066 5.1016 26.2032 4.96435L28.7831 2.38451C29.0576 2.10994 29.0576 1.66472 28.783 1.39008C28.5084 1.11558 28.0632 1.11558 27.7886 1.39008L25.2089 3.96999C24.9343 4.24456 24.9343 4.68978 25.2089 4.96442C25.3462 5.10167 25.5261 5.17029 25.706 5.17029Z" fill="white"/><path d="M18.5172 4.96444C18.6545 5.10169 18.8344 5.17038 19.0144 5.17038C19.1943 5.17038 19.3743 5.10169 19.5115 4.96444C19.7861 4.68987 19.7862 4.24465 19.5116 3.97001L16.9318 1.39017C16.6572 1.11575 16.212 1.11567 15.9374 1.39017C15.6628 1.66475 15.6628 2.10996 15.9373 2.3846L18.5172 4.96444Z" fill="white"/><path d="M9.70312 17.2858H6.04688C5.65854 17.2858 5.34375 17.6006 5.34375 17.9889C5.34375 18.3772 5.65854 18.692 6.04688 18.692H9.70312C10.0915 18.692 10.4062 18.3772 10.4062 17.9889C10.4062 17.6006 10.0915 17.2858 9.70312 17.2858Z" fill="white"/><path d="M16.5908 18.692C16.7757 18.692 16.9571 18.6168 17.0879 18.486C17.2187 18.3552 17.2939 18.1744 17.2939 17.9889C17.2939 17.804 17.2187 17.6226 17.0879 17.4918C16.9571 17.3611 16.7757 17.2858 16.5908 17.2858C16.4059 17.2858 16.2245 17.361 16.0937 17.4918C15.9622 17.6226 15.8877 17.804 15.8877 17.9889C15.8877 18.1738 15.9622 18.3552 16.0937 18.486C16.2245 18.6168 16.4052 18.692 16.5908 18.692Z" fill="white"/></svg>