<svg width="407" height="528" viewBox="0 0 407 528" fill="none" xmlns="http://www.w3.org/2000/svg">
<path d="M199.7 20.0246L183.91 64.2123L140.926 77.5828L125.136 121.771L82.1523 135.141L66.3622 179.329L23.3785 192.699L0.631286 256.358L273.384 437.217L325.084 495.806C360.696 536.163 420.979 538.335 459.463 500.646C497.948 462.958 500.284 399.462 464.672 359.105L412.972 300.516L261.624 0.763149L199.7 20.0246ZM153.86 131.041L163.729 103.424L189.225 95.4932L279.149 229.133L258.373 249.479L153.861 131.04L153.86 131.041ZM278.767 272.592L296.624 255.105L351.383 336.483L342.673 345.012L278.768 272.592L278.767 272.592ZM104.955 160.982L131.82 152.626L236.331 271.063L215.556 291.409L95.5898 187.191L104.955 160.982ZM256.727 294.177L320.633 366.597L311.923 375.127L238.871 311.664L256.727 294.177ZM172.927 333.158L37.3489 243.258L46.1811 218.54L74.3083 209.791L193.322 313.183L172.926 333.157L172.927 333.158ZM281.36 405.058L199.161 350.553L216.638 333.437L289.69 396.9L281.36 405.058ZM442.632 380.689C466.998 408.302 465.399 451.746 439.068 477.533C412.736 503.32 371.491 501.834 347.124 474.221L345.085 471.91L440.592 378.378L442.632 380.689ZM420.197 355.265L324.69 448.797L304.294 425.684L399.802 332.152L420.197 355.265ZM381.945 306.553L373.616 314.71L318.857 233.332L336.334 216.216L381.945 306.553ZM301.381 207.36L212.17 74.7806L222.503 45.8656L246.547 38.3869L321.777 187.386L301.381 207.36Z" fill="#C5D2DA" fill-opacity="0.35"/>
</svg>
