<svg width="309" height="254" viewBox="0 0 309 254" fill="none" xmlns="http://www.w3.org/2000/svg">
<path d="M130.687 189.48C149.679 196.718 168.838 195.682 184.634 186.562C221.167 164.274 221.919 115.147 202.174 81.4619C179.498 42.1858 134.733 25.4265 102.384 44.1025C70.0364 62.7794 62.1676 109.927 84.8429 149.204C95.7287 168.058 112.01 182.363 130.687 189.48ZM85.0751 128.778L98.0403 121.293L106.073 135.206C105.631 135.485 92.2018 143.147 91.6442 143.54C88.9582 138.709 86.7742 133.762 85.0751 128.778ZM93.5569 62.8553L103.251 79.6464L88.8501 87.9609L84.1714 79.8572C86.347 73.563 89.4887 67.8078 93.5569 62.8553ZM142.515 46.2203C142.642 46.6622 146.74 53.5632 147.135 54.3101L132.734 62.6252L123.04 45.8348C129.381 44.7843 135.957 44.9455 142.515 46.2203ZM178.116 65.0082L167.053 71.3955L154.609 49.8417C162.917 53.2151 170.934 58.3411 178.116 65.0082ZM151.488 61.8507L159.512 75.7486L145.111 84.0631L137.087 70.1652L151.488 61.8507ZM203.634 107.443L191.806 114.271L183.839 100.471L198.051 92.2864C200.366 97.1508 202.244 102.243 203.634 107.443ZM184.266 118.625L169.865 126.939L161.883 113.115L176.294 104.816L184.266 118.625ZM202.905 150.883C200.766 156.994 197.634 162.7 193.424 167.745L186.846 156.352L201.247 148.037L202.769 150.672C202.812 150.746 202.86 150.814 202.905 150.883ZM196.894 140.497L182.493 148.812L174.218 134.479L188.62 126.165L196.894 140.497ZM144.556 184.446L142.964 181.688L157.365 173.374L163.983 184.838C157.751 185.87 151.207 185.743 144.556 184.446ZM113.422 169.581L122.795 164.169L132.394 180.795C125.654 178.062 119.272 174.271 113.422 169.581ZM138.61 174.148L130.335 159.815L144.736 151.501L153.011 165.833L138.61 174.148ZM135.574 118.217L127.522 104.271L141.923 95.9567L149.984 109.919L135.574 118.217ZM154.338 117.459L162.325 131.293L147.924 139.607L139.928 125.758L154.338 117.459ZM128.029 122.563L113.618 130.861L105.58 116.939L119.981 108.625L128.029 122.563ZM132.382 130.103L140.383 143.961L125.982 152.275L117.972 138.402L132.382 130.103ZM152.277 147.148L166.678 138.833L174.953 153.166L160.552 161.48L152.277 147.148ZM157.53 105.574L149.464 91.6037L163.865 83.2891L171.94 97.2759L157.53 105.574ZM137.57 88.4167L123.169 96.7312L115.145 82.8333L129.546 74.5183L137.57 88.4167ZM115.628 101.084L101.227 109.399L93.2037 95.5017L107.605 87.1871L115.628 101.084ZM93.6871 113.753L82.6198 120.142C80.4365 110.588 80.0061 101.08 81.2405 92.1946L93.6871 113.753ZM96.341 150.858L110.427 142.746L118.442 156.629L106.601 163.465C102.818 159.679 99.3352 155.48 96.2109 150.924C96.2543 150.902 96.2984 150.883 96.341 150.858ZM172.715 182.547L164.905 169.021L179.306 160.706L187.064 174.143C184.972 175.909 182.7 177.55 180.239 179.047C177.822 180.438 175.307 181.603 172.715 182.547ZM205.841 138.58L196.16 121.812L205.526 116.405C206.687 123.849 206.834 131.357 205.841 138.58ZM193.925 84.6156L179.485 92.9312L171.405 78.9359L184.367 71.4525C187.857 75.4413 191.069 79.8383 193.925 84.6156ZM114.305 48.12L125.193 66.9788L110.792 75.2939L99.9035 56.435C102.017 54.6615 104.293 53.0547 106.737 51.6437C109.181 50.2316 111.711 49.0636 114.305 48.12Z" fill="white"/>
<path d="M92.923 27.7152C76.6884 37.0888 64.6755 51.9836 58.184 70.7902C51.8812 89.0447 51.3002 109.362 56.5029 129.537C57.1032 131.865 59.4769 133.266 61.8051 132.665C64.1334 132.065 65.5344 129.691 64.9335 127.363C55.0744 89.1318 68.0723 52.1162 97.2763 35.2552C134.503 13.7624 185.529 32.1993 211.033 76.3731C233.68 115.023 231.372 170.346 189.702 195.432C148.322 218.053 100.066 195.458 75.9959 154.311C74.3833 151.519 72.8795 148.629 71.526 145.722C70.511 143.543 67.9211 142.599 65.7421 143.613C63.5636 144.628 62.6199 147.217 63.6335 149.397C65.0945 152.534 66.7167 155.651 68.4555 158.664C84.7851 186.947 110.871 205.474 137.997 211.186L181.191 233.407C193.764 239.875 204.146 249.765 211.215 262.01L217.741 273.314L212.445 276.371C207.316 279.332 205.553 285.915 208.514 291.045L212.476 297.906C213.91 300.391 216.226 302.168 218.998 302.911C221.353 303.542 223.794 303.354 226 302.405L254.127 351.122C257.773 357.437 265.877 359.608 272.193 355.963L287.559 347.091C290.716 345.268 292.838 342.33 293.714 339.059C294.591 335.788 294.222 332.183 292.4 329.025L264.273 280.309C266.249 278.83 267.6 276.765 268.207 274.497C268.919 271.84 268.62 268.912 267.14 266.347L263.178 259.486C261.744 257.001 259.427 255.223 256.655 254.481C253.884 253.738 250.989 254.119 248.505 255.553L243.209 258.611L236.683 247.308C231.83 238.902 228.728 229.761 227.464 220.136C227.151 217.753 224.964 216.074 222.581 216.387C220.197 216.7 218.518 218.885 218.832 221.27C220.245 232.035 223.715 242.26 229.143 251.661L235.669 262.964L225.281 268.961L218.755 257.658C210.848 243.962 199.236 232.9 185.174 225.666L160.417 212.93C165.673 212.625 170.879 211.808 175.969 210.448L197.391 221.438C199.586 222.564 202.179 222.51 204.327 221.296C205.85 220.202 207.794 218.521 208.021 215.427L209.701 190.702C213.389 186.986 216.693 182.923 219.588 178.554L218.54 200.163C218.423 202.564 220.276 204.606 222.677 204.722C224.761 204.823 226.573 203.442 227.092 201.505C227.437 200.409 229.121 159.623 229.279 158.477C238.376 130.878 233.798 98.0546 218.562 72.0007C190.668 23.6888 134.308 3.82261 92.923 27.7152ZM264.06 297.352L240.867 310.742L233.582 298.124L256.775 284.734L264.06 297.352ZM275.59 317.321L252.397 330.712L245.22 318.282L268.413 304.893L275.59 317.321ZM284.86 333.378C286.105 335.537 285.363 338.305 283.206 339.551L267.84 348.423C265.682 349.669 262.912 348.926 261.667 346.769L256.75 338.253L279.943 324.863L284.86 333.378ZM255.638 263.838L259.6 270.699C260.161 271.671 259.827 272.919 258.855 273.48L222.795 294.299C222.16 294.666 221.555 294.583 221.252 294.502C220.948 294.42 220.383 294.189 220.016 293.553L216.054 286.692C215.493 285.72 215.827 284.472 216.799 283.911L252.859 263.092C253.494 262.726 254.099 262.808 254.403 262.89C254.706 262.971 255.271 263.202 255.638 263.838ZM199.478 212.724L187.238 206.444C191.509 204.551 195.807 202.126 200.431 198.707L199.478 212.724Z" fill="white"/>
</svg>
