<svg width="20" height="20" viewBox="0 0 20 20" fill="none" xmlns="http://www.w3.org/2000/svg"><path d="M5.83341 18.3333H3.33341C2.89139 18.3333 2.46746 18.1577 2.1549 17.8452C1.84234 17.5326 1.66675 17.1087 1.66675 16.6667V10.8333C1.66675 10.3913 1.84234 9.96738 2.1549 9.65482C2.46746 9.34226 2.89139 9.16667 3.33341 9.16667H5.83341M11.6667 7.5V4.16667C11.6667 3.50363 11.4034 2.86774 10.9345 2.3989C10.4657 1.93006 9.82979 1.66667 9.16675 1.66667L5.83341 9.16667V18.3333H15.2334C15.6354 18.3379 16.0254 18.197 16.3317 17.9367C16.6379 17.6763 16.8398 17.3141 16.9001 16.9167L18.0501 9.41667C18.0863 9.1778 18.0702 8.9339 18.0029 8.70188C17.9355 8.46985 17.8185 8.25525 17.66 8.07293C17.5014 7.89061 17.3051 7.74494 17.0847 7.64601C16.8643 7.54709 16.625 7.49726 16.3834 7.5H11.6667Z" stroke="#EB7001" stroke-width="2" stroke-linecap="round" stroke-linejoin="round"/></svg>