<svg width="20" height="20" viewBox="0 0 20 20" fill="none" xmlns="http://www.w3.org/2000/svg"><path d="M14.1667 1.66662H16.3917C16.8633 1.65828 17.3216 1.8234 17.6795 2.13063C18.0375 2.43787 18.2701 2.86583 18.3334 3.33328V9.16662C18.2701 9.63407 18.0375 10.062 17.6795 10.3693C17.3216 10.6765 16.8633 10.8416 16.3917 10.8333H14.1667M8.33336 12.4999V15.8333C8.33336 16.4963 8.59675 17.1322 9.06559 17.601C9.53443 18.0699 10.1703 18.3333 10.8334 18.3333L14.1667 10.8333V1.66662H4.76669C4.36475 1.66207 3.97471 1.80295 3.66844 2.06328C3.36216 2.32361 3.16029 2.68586 3.10003 3.08328L1.95003 10.5833C1.91377 10.8222 1.92988 11.066 1.99724 11.2981C2.0646 11.5301 2.18161 11.7447 2.34014 11.927C2.49868 12.1093 2.69496 12.255 2.91538 12.3539C3.13581 12.4529 3.3751 12.5027 3.61669 12.4999H8.33336Z" stroke="#EB7001" stroke-width="2" stroke-linecap="round" stroke-linejoin="round"/></svg>