<svg width="34" height="40" viewBox="0 0 34 40" fill="none" xmlns="http://www.w3.org/2000/svg">
<path d="M16.7164 19.2682C19.3635 19.2682 21.6554 18.3188 23.5286 16.4456C25.4011 14.5728 26.3508 12.2812 26.3508 9.63379C26.3508 6.9873 25.4014 4.69543 23.5283 2.82196C21.6551 0.949402 19.3632 0 16.7164 0C14.069 0 11.7775 0.949402 9.9046 2.82227C8.03174 4.69513 7.08203 6.987 7.08203 9.63379C7.08203 12.2812 8.03174 14.5731 9.9046 16.4459C11.7781 18.3185 14.0699 19.2682 16.7164 19.2682V19.2682ZM11.5623 4.47968C12.9994 3.0426 14.6852 2.34406 16.7164 2.34406C18.7474 2.34406 20.4335 3.0426 21.8709 4.47968C23.3079 5.91705 24.0068 7.60315 24.0068 9.63379C24.0068 11.665 23.3079 13.3508 21.8709 14.7882C20.4335 16.2256 18.7474 16.9241 16.7164 16.9241C14.6858 16.9241 13 16.2253 11.5623 14.7882C10.1249 13.3511 9.42609 11.665 9.42609 9.63379C9.42609 7.60315 10.1249 5.91705 11.5623 4.47968Z" fill="#3F3F3F"/>
<path d="M33.5726 30.758C33.5186 29.9786 33.4093 29.1284 33.2485 28.2305C33.0861 27.326 32.8771 26.4709 32.6268 25.6893C32.368 24.8815 32.0168 24.0838 31.5819 23.3193C31.1312 22.5259 30.6014 21.835 30.0069 21.2664C29.3853 20.6716 28.6241 20.1934 27.744 19.8446C26.8669 19.4976 25.895 19.3218 24.8552 19.3218C24.4469 19.3218 24.052 19.4894 23.2894 19.9859C22.82 20.292 22.271 20.646 21.6582 21.0375C21.1342 21.3714 20.4244 21.6842 19.5476 21.9674C18.6922 22.2442 17.8237 22.3846 16.9661 22.3846C16.1092 22.3846 15.2407 22.2442 14.3846 21.9674C13.5088 21.6845 12.7986 21.3717 12.2756 21.0378C11.6686 20.65 11.1193 20.296 10.6429 19.9856C9.88086 19.4891 9.48596 19.3215 9.07764 19.3215C8.0376 19.3215 7.06592 19.4976 6.18915 19.8449C5.30963 20.1931 4.54822 20.6713 3.92596 21.2667C3.33148 21.8356 2.8017 22.5262 2.35126 23.3193C1.91699 24.0838 1.56543 24.8812 1.30664 25.6896C1.0567 26.4712 0.847656 27.326 0.685303 28.2305C0.52417 29.1271 0.415222 29.9777 0.361206 30.7589C0.308105 31.5228 0.28125 32.3177 0.28125 33.121C0.28125 35.209 0.945007 36.8994 2.25391 38.146C3.54663 39.3762 5.25684 39.9999 7.33722 39.9999H26.5975C28.6772 39.9999 30.3875 39.3762 31.6805 38.146C32.9897 36.9003 33.6534 35.2093 33.6534 33.1207C33.6531 32.3147 33.626 31.5197 33.5726 30.758V30.758ZM30.0643 36.4477C29.2101 37.2607 28.076 37.6559 26.5972 37.6559H7.33722C5.85803 37.6559 4.724 37.2607 3.87012 36.448C3.03241 35.6506 2.62531 34.562 2.62531 33.121C2.62531 32.3715 2.65002 31.6314 2.69946 30.921C2.74768 30.2239 2.84625 29.4583 2.99243 28.6447C3.13678 27.8411 3.3205 27.087 3.539 26.4044C3.74866 25.7498 4.03461 25.1016 4.38922 24.4772C4.72766 23.8821 5.11707 23.3715 5.54675 22.9601C5.94867 22.5753 6.45526 22.2604 7.05219 22.0242C7.60425 21.8057 8.22467 21.686 8.89819 21.668C8.98029 21.7117 9.12646 21.795 9.36328 21.9494C9.84515 22.2634 10.4006 22.6217 11.0146 23.0139C11.7067 23.4551 12.5984 23.8537 13.6638 24.1976C14.753 24.5498 15.8638 24.7286 16.9664 24.7286C18.069 24.7286 19.1802 24.5498 20.2687 24.1979C21.335 23.8534 22.2264 23.4551 22.9195 23.0132C23.5479 22.6116 24.0877 22.2637 24.5696 21.9494C24.8064 21.7953 24.9526 21.7117 25.0347 21.668C25.7085 21.686 26.3289 21.8057 26.8813 22.0242C27.4779 22.2604 27.9845 22.5756 28.3864 22.9601C28.8161 23.3712 29.2055 23.8818 29.5439 24.4775C29.8989 25.1016 30.1851 25.7501 30.3945 26.4041C30.6133 27.0876 30.7973 27.8414 30.9413 28.6443C31.0872 29.4595 31.1861 30.2255 31.2343 30.9213V30.9219C31.2841 31.6296 31.3091 32.3693 31.3094 33.121C31.3091 34.5623 30.902 35.6506 30.0643 36.4477V36.4477Z" fill="#3F3F3F"/>
</svg>
