<svg width="21" height="25" viewBox="0 0 21 25" fill="none" xmlns="http://www.w3.org/2000/svg"><path d="M10.3223 12.0426C11.9767 12.0426 13.4091 11.4492 14.5799 10.2785C15.7502 9.10797 16.3438 7.67574 16.3438 6.02112C16.3438 4.36707 15.7504 2.93465 14.5797 1.76373C13.4089 0.593376 11.9765 0 10.3223 0C8.66766 0 7.23543 0.593376 6.06489 1.76392C4.89435 2.93446 4.30078 4.36687 4.30078 6.02112C4.30078 7.67574 4.89435 9.10816 6.06489 10.2787C7.23581 11.4491 8.66823 12.0426 10.3223 12.0426ZM7.10096 2.7998C7.99913 1.90163 9.05275 1.46503 10.3223 1.46503C11.5916 1.46503 12.6454 1.90163 13.5438 2.7998C14.442 3.69816 14.8787 4.75197 14.8787 6.02112C14.8787 7.29065 14.442 8.34427 13.5438 9.24263C12.6454 10.141 11.5916 10.5776 10.3223 10.5776C9.05313 10.5776 7.99951 10.1408 7.10096 9.24263C6.2026 8.34446 5.76582 7.29065 5.76582 6.02112C5.76582 4.75197 6.2026 3.69816 7.10096 2.7998Z" fill="#3F3F3F"/><path d="M20.8579 19.2238C20.8241 18.7367 20.7558 18.2053 20.6553 17.6442C20.5538 17.0788 20.4232 16.5444 20.2668 16.0559C20.105 15.551 19.8855 15.0525 19.6137 14.5747C19.332 14.0788 19.0009 13.6469 18.6293 13.2916C18.2408 12.9199 17.7651 12.621 17.215 12.403C16.6668 12.1861 16.0593 12.0762 15.4095 12.0762C15.1543 12.0762 14.9075 12.181 14.4309 12.4913C14.1375 12.6826 13.7944 12.9038 13.4114 13.1486C13.0839 13.3572 12.6402 13.5527 12.0923 13.7297C11.5576 13.9027 11.0148 13.9905 10.4788 13.9905C9.94324 13.9905 9.40041 13.9027 8.8654 13.7297C8.31799 13.5529 7.87415 13.3574 7.54723 13.1487C7.16786 12.9063 6.82454 12.6851 6.5268 12.4911C6.05054 12.1808 5.80373 12.076 5.54852 12.076C4.8985 12.076 4.2912 12.1861 3.74322 12.4032C3.19352 12.6208 2.71764 12.9197 2.32873 13.2918C1.95718 13.6473 1.62606 14.079 1.34454 14.5747C1.07312 15.0525 0.853394 15.5509 0.69165 16.0561C0.535439 16.5446 0.404785 17.0788 0.303314 17.6442C0.202606 18.2046 0.134514 18.7361 0.100754 19.2244C0.0675659 19.7018 0.0507812 20.1987 0.0507812 20.7007C0.0507812 22.0057 0.46563 23.0622 1.28369 23.8413C2.09164 24.6102 3.16052 25.0001 4.46076 25.0001H16.4984C17.7983 25.0001 18.8672 24.6102 19.6753 23.8413C20.4936 23.0628 20.9084 22.0059 20.9084 20.7005C20.9082 20.1968 20.8912 19.6999 20.8579 19.2238ZM18.6652 22.7799C18.1313 23.288 17.4225 23.535 16.4982 23.535H4.46076C3.53627 23.535 2.8275 23.288 2.29382 22.7801C1.77026 22.2817 1.51582 21.6013 1.51582 20.7007C1.51582 20.2323 1.53127 19.7697 1.56216 19.3257C1.5923 18.8901 1.65391 18.4115 1.74527 17.903C1.83549 17.4008 1.95031 16.9295 2.08688 16.5028C2.21791 16.0937 2.39663 15.6886 2.61826 15.2983C2.82979 14.9264 3.07317 14.6073 3.34172 14.3502C3.59292 14.1097 3.90954 13.9128 4.28262 13.7652C4.62766 13.6286 5.01542 13.5539 5.43637 13.5426C5.48768 13.5699 5.57904 13.622 5.72705 13.7185C6.02822 13.9147 6.37536 14.1387 6.75912 14.3838C7.1917 14.6596 7.74903 14.9087 8.41489 15.1236C9.09562 15.3437 9.78989 15.4555 10.479 15.4555C11.1681 15.4555 11.8626 15.3437 12.543 15.1238C13.2094 14.9085 13.7665 14.6596 14.1997 14.3834C14.5924 14.1324 14.9298 13.9149 15.231 13.7185C15.379 13.6221 15.4704 13.5699 15.5217 13.5426C15.9428 13.5539 16.3306 13.6286 16.6758 13.7652C17.0487 13.9128 17.3653 14.1099 17.6165 14.3502C17.8851 14.6071 18.1284 14.9262 18.34 15.2985C18.5618 15.6886 18.7407 16.0939 18.8715 16.5026C19.0083 16.9299 19.1233 17.401 19.2133 17.9028C19.3045 18.4123 19.3663 18.891 19.3964 19.3259V19.3263C19.4275 19.7686 19.4432 20.2309 19.4434 20.7007C19.4432 21.6015 19.1887 22.2817 18.6652 22.7799Z" fill="#3F3F3F"/></svg>