<svg width="40" height="39" viewBox="0 0 40 39" fill="none" xmlns="http://www.w3.org/2000/svg">
<path d="M5.35783 34.0579C4.81916 34.0738 4.41455 33.4744 4.63604 32.9865C4.89346 32.3548 5.82158 32.3547 6.07893 32.9865C6.30088 33.4738 5.89596 34.0734 5.35783 34.0579Z" fill="#3F3F3F"/>
<path d="M27.908 35.4164H12.7539C12.3224 35.4164 11.9727 35.0695 11.9727 34.6417V29.7046C11.9727 29.2768 12.3224 28.9299 12.7539 28.9299H27.9081C28.3395 28.9299 28.6894 29.2768 28.6894 29.7046V34.6417C28.6893 35.0695 28.3395 35.4164 27.908 35.4164ZM13.5352 33.867H27.1269V30.4793H13.5352V33.867Z" fill="#3F3F3F"/>
<path d="M20.7559 27.6344C19.4043 27.6344 18.3047 26.5427 18.3047 25.2009C18.3047 23.859 19.4043 22.7673 20.7559 22.7673C22.1074 22.7673 23.207 23.859 23.207 25.2009C23.207 26.5427 22.1074 27.6344 20.7559 27.6344ZM20.7559 24.3167C20.2659 24.3167 19.8672 24.7134 19.8672 25.2009C19.8672 25.6884 20.2659 26.085 20.7559 26.085C21.2459 26.085 21.6445 25.6884 21.6445 25.2009C21.6445 24.7134 21.2459 24.3167 20.7559 24.3167Z" fill="#3F3F3F"/>
<path d="M26.2441 27.6344C24.8926 27.6344 23.793 26.5427 23.793 25.2009C23.793 23.859 24.8926 22.7673 26.2441 22.7673C27.5958 22.7673 28.6954 23.859 28.6954 25.2009C28.6954 26.5427 27.5958 27.6344 26.2441 27.6344ZM26.2441 24.3167C25.7541 24.3167 25.3555 24.7134 25.3555 25.2009C25.3555 25.6884 25.7541 26.085 26.2441 26.085C26.7341 26.085 27.1329 25.6884 27.1329 25.2009C27.1329 24.7134 26.7342 24.3167 26.2441 24.3167Z" fill="#3F3F3F"/>
<path d="M23.4944 13.3124C20.6973 13.3124 18.4219 11.0526 18.4219 8.27499C18.4219 5.49733 20.6973 3.23755 23.4944 3.23755C26.2913 3.23755 28.5667 5.49733 28.5667 8.27499C28.5667 11.0526 26.2913 13.3124 23.4944 13.3124ZM23.4944 4.78686C21.559 4.78686 19.9844 6.35158 19.9844 8.27492C19.9844 10.1982 21.5589 11.7629 23.4944 11.7629C25.4297 11.7629 27.0042 10.1982 27.0042 8.27492C27.0042 6.35158 25.4298 4.78686 23.4944 4.78686Z" fill="#3F3F3F"/>
<path d="M39.6414 17.1615C39.418 17.0189 39.1366 16.9987 38.8948 17.1081L32.8298 19.8483V17.786C32.8298 16.25 31.5713 15.0005 30.0243 15.0005H28.3469C30.4543 13.4974 31.8295 11.0427 31.8295 8.27496C31.8295 3.71218 28.092 1.21251e-09 23.4979 1.21251e-09C20.1616 1.21251e-09 17.277 1.95788 15.9476 4.77753C14.6182 1.95788 11.7337 1.21251e-09 8.39727 1.21251e-09C3.80336 -7.74681e-05 0.0657813 3.7121 0.0657813 8.27496C0.0657813 11.0427 1.44102 13.4974 3.54844 15.0005H2.80555C1.25852 15.0005 0 16.25 0 17.786V36.2144C0 37.7503 1.25852 39 2.80555 39H30.0243C31.5713 39 32.8298 37.7503 32.8298 36.2144V34.1522L38.8948 36.8924C38.998 36.9391 39.1085 36.9621 39.2187 36.9621C39.3664 36.9621 39.5134 36.9206 39.6414 36.8389C39.8648 36.6964 40 36.4509 40 36.1874V17.8131C40 17.5495 39.8649 17.304 39.6414 17.1615ZM23.4979 1.54931C27.2304 1.54931 30.267 4.56635 30.267 8.27489C30.267 11.9833 27.2305 15.0004 23.4979 15.0004C19.7655 15.0004 16.7288 11.9833 16.7288 8.27489C16.7289 4.56635 19.7655 1.54931 23.4979 1.54931ZM18.6491 15.0005H13.2463C14.4026 14.1758 15.3384 13.0646 15.9477 11.7724C16.5569 13.0646 17.4927 14.1757 18.6491 15.0005ZM1.62828 8.27496C1.62828 4.56643 4.66484 1.54939 8.39742 1.54939C12.1298 1.54939 15.1665 4.56643 15.1665 8.27496C15.1665 11.9834 12.1299 15.0005 8.39742 15.0005C4.66484 15.0005 1.62828 11.9834 1.62828 8.27496ZM31.2674 36.2144C31.2674 36.896 30.7098 37.4506 30.0244 37.4506H2.80562C2.12023 37.4506 1.56258 36.896 1.56258 36.2144V17.786C1.56258 17.1044 2.12023 16.5499 2.80562 16.5499H4.57859V30.0483C4.57859 30.476 4.92844 30.823 5.35984 30.823C5.79125 30.823 6.14109 30.476 6.14109 30.0483V16.5499H30.0244C30.7098 16.5499 31.2674 17.1044 31.2674 17.786V36.2144ZM38.4375 34.9831L32.8299 32.4496V21.5509L38.4375 19.0173V34.9831Z" fill="#3F3F3F"/>
<path d="M8.39656 13.3124C5.59969 13.3124 3.32422 11.0526 3.32422 8.27499C3.32422 5.49733 5.59969 3.23755 8.39656 3.23755C11.1936 3.23755 13.4691 5.49733 13.4691 8.27499C13.4691 11.0526 11.1936 13.3124 8.39656 13.3124ZM8.39656 4.78686C6.46125 4.78686 4.88672 6.35158 4.88672 8.27492C4.88672 10.1982 6.46117 11.7629 8.39656 11.7629C10.332 11.7629 11.9066 10.1982 11.9066 8.27492C11.9066 6.35158 10.332 4.78686 8.39656 4.78686Z" fill="#3F3F3F"/>
</svg>
