<svg width="36" height="36" viewBox="0 0 36 36" fill="none" xmlns="http://www.w3.org/2000/svg"><path d="M4.82439 31.213C4.33959 31.2274 3.97544 30.6834 4.17478 30.2406C4.40646 29.6672 5.24177 29.6672 5.47338 30.2406C5.67314 30.6829 5.30871 31.2271 4.82439 31.213Z" fill="white"/><path d="M25.1221 32.446H11.4834C11.0951 32.446 10.7803 32.1311 10.7803 31.7429V27.2618C10.7803 26.8736 11.0951 26.5587 11.4834 26.5587H25.1222C25.5105 26.5587 25.8253 26.8736 25.8253 27.2618V31.7429C25.8252 32.1311 25.5105 32.446 25.1221 32.446ZM12.1865 31.0397H24.4191V27.965H12.1865V31.0397Z" fill="white"/><path d="M18.6787 25.3829C17.4623 25.3829 16.4727 24.3921 16.4727 23.1742C16.4727 21.9563 17.4623 20.9655 18.6787 20.9655C19.8951 20.9655 20.8848 21.9563 20.8848 23.1742C20.8848 24.3921 19.8951 25.3829 18.6787 25.3829ZM18.6787 22.3717C18.2377 22.3717 17.8789 22.7317 17.8789 23.1742C17.8789 23.6167 18.2377 23.9767 18.6787 23.9767C19.1198 23.9767 19.4785 23.6167 19.4785 23.1742C19.4785 22.7317 19.1197 22.3717 18.6787 22.3717Z" fill="white"/><path d="M23.6191 25.3829C22.4027 25.3829 21.4131 24.3921 21.4131 23.1742C21.4131 21.9563 22.4027 20.9655 23.6191 20.9655C24.8356 20.9655 25.8253 21.9563 25.8253 23.1742C25.8253 24.3921 24.8356 25.3829 23.6191 25.3829ZM23.6191 22.3717C23.1781 22.3717 22.8193 22.7317 22.8193 23.1742C22.8193 23.6167 23.1781 23.9767 23.6191 23.9767C24.0601 23.9767 24.419 23.6167 24.419 23.1742C24.419 22.7317 24.0602 22.3717 23.6191 22.3717Z" fill="white"/><path d="M21.1483 12.3839C18.6309 12.3839 16.583 10.3329 16.583 7.81194C16.583 5.29088 18.6309 3.23987 21.1483 3.23987C23.6655 3.23987 25.7134 5.29088 25.7134 7.81194C25.7134 10.3329 23.6655 12.3839 21.1483 12.3839ZM21.1483 4.64605C19.4064 4.64605 17.9893 6.06622 17.9893 7.81187C17.9893 9.55745 19.4063 10.9776 21.1483 10.9776C22.89 10.9776 24.3071 9.55745 24.3071 7.81187C24.3071 6.06622 22.8901 4.64605 21.1483 4.64605Z" fill="white"/><path d="M35.6773 15.8774C35.4762 15.748 35.223 15.7297 35.0053 15.829L29.5469 18.316V16.4443C29.5469 15.0502 28.4142 13.9161 27.0219 13.9161H25.5122C27.4089 12.5519 28.6466 10.3239 28.6466 7.81189C28.6466 3.67063 25.2828 0.301392 21.1481 0.301392C18.1454 0.301392 15.5493 2.0784 14.3528 4.63756C13.1564 2.0784 10.5603 0.301392 7.55754 0.301392C3.42302 0.301321 0.0592031 3.67056 0.0592031 7.81189C0.0592031 10.3239 1.29691 12.5519 3.19359 13.9161H2.52499C1.13266 13.9161 0 15.0502 0 16.4443V33.1702C0 34.5643 1.13266 35.6985 2.52499 35.6985H27.0219C28.4142 35.6985 29.5469 34.5643 29.5469 33.1702V31.2985L35.0053 33.7855C35.0982 33.8279 35.1977 33.8488 35.2968 33.8488C35.4298 33.8488 35.5621 33.8112 35.6773 33.737C35.8784 33.6076 36 33.3848 36 33.1457V16.4688C36 16.2296 35.8784 16.0068 35.6773 15.8774ZM21.1481 1.70757C24.5074 1.70757 27.2403 4.44589 27.2403 7.81182C27.2403 11.1777 24.5074 13.916 21.1481 13.916C17.7889 13.916 15.0559 11.1777 15.0559 7.81182C15.056 4.44589 17.7889 1.70757 21.1481 1.70757ZM16.7842 13.9161H11.9216C12.9623 13.1676 13.8046 12.159 14.3529 10.9862C14.9012 12.159 15.7435 13.1675 16.7842 13.9161ZM1.46545 7.81189C1.46545 4.44596 4.19836 1.70764 7.55768 1.70764C10.9169 1.70764 13.6498 4.44596 13.6498 7.81189C13.6498 11.1778 10.9169 13.9161 7.55768 13.9161C4.19836 13.9161 1.46545 11.1778 1.46545 7.81189ZM28.1407 33.1702C28.1407 33.7888 27.6388 34.2922 27.0219 34.2922H2.52506C1.90821 34.2922 1.40632 33.7888 1.40632 33.1702V16.4443C1.40632 15.8256 1.90821 15.3223 2.52506 15.3223H4.12073V27.5737C4.12073 27.962 4.43559 28.2768 4.82386 28.2768C5.21213 28.2768 5.52698 27.962 5.52698 27.5737V15.3223H27.0219C27.6388 15.3223 28.1407 15.8256 28.1407 16.4443V33.1702ZM34.5938 32.0527L29.5469 29.7532V19.8613L34.5938 17.5618V32.0527Z" fill="white"/><path d="M7.5573 12.3839C5.04011 12.3839 2.99219 10.3329 2.99219 7.81194C2.99219 5.29088 5.04011 3.23987 7.5573 3.23987C10.0746 3.23987 12.1225 5.29088 12.1225 7.81194C12.1225 10.3329 10.0746 12.3839 7.5573 12.3839ZM7.5573 4.64605C5.81552 4.64605 4.39844 6.06622 4.39844 7.81187C4.39844 9.55745 5.81545 10.9776 7.5573 10.9776C9.29915 10.9776 10.7163 9.55745 10.7163 7.81187C10.7163 6.06622 9.29922 4.64605 7.5573 4.64605Z" fill="white"/></svg>