<svg width="18" height="11" viewBox="0 0 18 11" fill="none" xmlns="http://www.w3.org/2000/svg"><path d="M14.542 5.94336C14.2623 5.59725 14.3423 5.44327 14.542 5.13389C14.5456 5.13035 16.8553 2.00408 17.0932 0.943854L17.0947 0.943148C17.2129 0.556777 17.0947 0.272827 16.5229 0.272827H14.6307C14.149 0.272827 13.927 0.516516 13.808 0.789165C13.808 0.789165 12.8446 3.04805 11.4818 4.5123C11.0419 4.9354 10.8385 5.07102 10.5984 5.07102C10.4802 5.07102 10.2963 4.9354 10.2963 4.54903V0.943148C10.2963 0.479786 10.1615 0.272827 9.76269 0.272827H6.7875C6.48536 0.272827 6.30581 0.488968 6.30581 0.690277C6.30581 1.12962 6.98724 1.23063 7.0579 2.46673V5.14872C7.0579 5.7364 6.94902 5.84447 6.70746 5.84447C6.06425 5.84447 4.5031 3.5764 3.57795 0.980584C3.39119 0.47696 3.20875 0.273533 2.72346 0.273533H0.830617C0.290524 0.273533 0.181641 0.517222 0.181641 0.789871C0.181641 1.2716 0.824848 3.66681 3.1727 6.83123C4.73745 8.99123 6.94109 10.1616 8.9457 10.1616C10.1506 10.1616 10.2977 9.90171 10.2977 9.45459C10.2977 7.39066 10.1889 7.1957 10.7924 7.1957C11.0722 7.1957 11.5539 7.33132 12.6788 8.37318C13.9644 9.60858 14.1757 10.1616 14.8954 10.1616H16.7875C17.3269 10.1616 17.6002 9.90171 17.443 9.3889C17.0831 8.31032 14.6516 6.09169 14.542 5.94336Z" fill="white"/></svg>