<svg width="494" height="520" viewBox="0 0 494 520" fill="none" xmlns="http://www.w3.org/2000/svg"><path d="M427.659 83.0726C381.29 30.4615 314.973 0 246.833 0C165.447 0 89.3202 42.2518 43.1912 113.025C20.9848 147.119 6.70502 186.777 1.89465 227.717C0.637334 238.35 0 249.211 0 259.999C0 285.129 3.39783 309.974 10.1019 333.851C40.0546 440.528 131.08 515.245 236.606 519.778C271.315 521.269 306.243 515.111 338.496 501.475C338.563 501.447 338.627 501.409 338.693 501.378C403.588 471.521 455.427 418.183 479.418 347.252C509.93 257.037 489.437 153.168 427.659 83.0726ZM296.972 22.4147C298.128 22.2004 299.288 21.9882 300.456 21.784C326.722 28.3175 351.333 39.4589 373.83 54.9836C373.396 55.0923 372.966 55.2131 372.53 55.3228C363.442 57.4495 354.437 60.2039 345.537 63.0659C342.869 63.9241 340.212 64.7976 337.578 65.7015C333.781 67.0055 331.706 71.3046 332.944 75.3052C334.182 79.3057 338.262 81.4872 342.061 80.1862C344.699 79.2823 347.345 78.4119 349.998 77.5608C359.423 74.5373 369.055 71.8084 378.691 69.4349C379.779 69.1667 380.868 68.9057 381.958 68.6457C384.512 68.0364 387.072 67.4544 389.635 66.8918C412.974 86.089 432.879 110.112 447.76 136.981C431.891 139.392 415.988 143.296 400.77 148.638C343.818 168.635 290.737 203.672 247.8 247.79C247.599 247.997 247.392 248.209 247.205 248.402C236.347 244.857 204.649 233.651 168.189 212.885C168.177 212.879 168.165 212.872 168.154 212.865C166.552 211.934 164.942 211.02 163.343 210.083C163.393 210.111 166.333 205.763 166.551 205.457C181.407 184.611 199.255 166.049 218.498 149.714C237.793 133.336 258.704 119.128 280.706 107.131C291.119 101.453 301.778 96.1883 312.652 91.5632C316.346 89.9636 318.11 85.5121 316.59 81.6213C315.071 77.7304 310.846 75.8719 307.151 77.4735C300.443 80.3782 293.805 83.4687 287.249 86.74C264.584 98.0428 242.887 111.529 222.676 127.177C206.161 139.964 190.626 154.184 176.474 169.81C168.066 179.093 160.119 188.87 152.943 199.242C152.215 200.295 151.493 201.354 150.783 202.42C143.33 197.697 136.027 192.716 128.868 187.513C118.394 179.902 108.379 171.778 98.7848 162.972C97.514 161.805 96.2499 160.631 94.9945 159.446C95.0398 159.369 95.0832 159.293 95.1285 159.215C95.8016 158.049 96.491 156.894 97.191 155.746C115.682 125.383 140.461 99.3753 168.264 78.4465C197.512 56.4288 230.482 40.1099 265.106 29.9902C275.603 26.922 286.244 24.4064 296.972 22.4147ZM246.833 15.2343C251.272 15.2343 255.707 15.3663 260.131 15.6304C259.971 15.6781 259.815 15.7279 259.656 15.7756C259.169 15.9209 258.69 16.0712 258.206 16.2184C246.846 19.6665 235.675 23.7432 224.723 28.4343C182.221 46.7023 143.619 74.709 112.546 110.33C102.12 122.288 92.53 135.075 84.2659 148.791C76.4588 140.657 69.0808 132.079 62.2687 123.004C60.8388 121.102 59.4379 119.178 58.0591 117.235C101.739 53.2652 171.922 15.2343 246.833 15.2343ZM23.5389 327.976C17.5146 305.985 14.461 283.124 14.461 259.999C14.461 255.392 14.5844 250.771 14.8293 246.163C15.1215 246.476 21.8911 253.616 24.0982 255.865C49.9926 282.237 78.8645 305.399 110.202 324.14C125.554 333.321 141.488 341.442 157.851 348.422C161.553 350.001 165.769 348.117 167.267 344.217C168.764 340.317 166.978 335.877 163.275 334.299C147.761 327.69 132.656 320 118.084 311.333C81.4746 289.554 48.3901 261.534 19.5626 229.345C18.5974 228.268 17.638 227.184 16.6825 226.096C21.1275 192.344 32.4095 159.608 49.5433 130.621C49.9502 131.172 50.3744 131.719 50.7871 132.268C72.3658 161.014 99.0229 185.145 127.989 205.29C141.816 214.906 156.18 223.664 170.925 231.62C204.82 249.908 232.976 259.761 243.249 263.072C245.384 272.653 250.562 298.263 253.22 331.803C253.948 340.712 254.665 349.751 254.665 358.699C254.666 358.728 254.666 358.757 254.667 358.786C253.816 358.706 252.915 358.616 251.961 358.514C247.29 358.013 242.517 357.325 237.831 356.552C225.004 354.406 212.333 351.318 199.846 347.569C196.896 346.684 193.929 345.448 190.924 344.804C187.338 344.033 183.674 346.322 182.584 350C181.412 353.957 183.591 358.311 187.333 359.54C199.679 363.6 212.232 366.988 224.927 369.602C230.87 370.823 236.845 371.873 242.848 372.712C246.655 373.243 250.471 373.695 254.297 374.039C254.479 374.055 254.667 374.072 254.844 374.087C254.843 374.376 254.84 374.663 254.838 374.953C254.723 398.506 252.855 422.353 248.691 445.613C248.643 445.884 248.596 446.157 248.547 446.428C239.146 446.159 219.521 444.778 194.253 438.519C182.63 435.64 171.179 432.06 159.937 427.828C123.752 414.203 90.9063 394.25 61.776 368.238C61.7269 368.195 61.6767 368.15 61.6276 368.106C48.4325 356.259 36.1091 343.338 24.7885 329.508C24.371 328.998 23.9545 328.489 23.5389 327.976ZM242.343 473.941C239.558 484.159 236.174 494.416 232.238 504.288C147.15 498.729 72.7158 444.683 36.8728 365.085C40.288 368.539 43.7774 371.913 47.3247 375.216C77.0354 402.862 110.548 424.281 147.511 439.222C159.21 443.947 171.154 448.025 183.283 451.342C211.053 458.965 233.404 461.038 245.439 461.56C244.487 465.71 243.46 469.837 242.343 473.941ZM330.614 486.967C330.437 487.509 330.255 488.049 330.076 488.59C303.81 499.216 276.112 504.654 247.691 504.761C247.957 504.05 248.221 503.338 248.481 502.624C274.384 431.787 274.052 350.849 260.85 277.102C259.799 271.23 258.643 265.378 257.339 259.563C257.324 259.493 257.305 259.412 257.29 259.344C263.277 253.186 278.644 238.05 300.796 220.972C300.85 220.931 300.904 220.889 300.958 220.849C310.188 213.758 319.721 206.084 329.836 200.454C330.041 200.363 333.46 210.123 333.831 211.205C356.351 277.01 359.576 350.158 347.717 418.669C343.704 441.854 337.918 464.694 330.614 486.967ZM433.118 390.655C431.539 398.364 429.757 406.027 427.739 413.621C426.188 415.646 424.567 417.694 422.909 419.725C422.859 419.788 422.809 419.851 422.759 419.915C402.006 445.221 376.366 465.919 347.92 480.437C348.13 479.743 348.328 479.05 348.535 478.356C353.553 461.507 357.718 444.373 360.932 427.041C368.525 386.101 370.737 344.131 367.132 302.577C363.891 265.226 356.539 227.405 342.527 192.804C342.498 192.733 342.467 192.655 342.439 192.585C343.823 191.761 345.205 190.945 346.603 190.135C361.971 181.247 377.919 173.447 394.381 167.088C399.234 165.214 404.13 163.465 409.068 161.855C409.325 161.819 410.049 164.036 410.169 164.324C424.397 198.202 434.114 233.869 438.335 270.666C442.907 310.595 441.167 351.336 433.118 390.655ZM449.997 378.996C450.041 378.724 450.078 378.451 450.122 378.179C454.487 351.307 456.114 323.947 454.911 296.712C453.758 270.636 450.05 244.669 443.886 219.385C438.75 198.339 431.917 177.745 423.321 157.987C423.276 157.885 423.23 157.778 423.186 157.677C423.939 157.476 424.691 157.27 425.444 157.076C432.885 155.158 440.397 153.613 447.963 152.357C449.001 152.185 453.756 151.497 455.098 151.324C470.883 184.858 479.205 222.316 479.205 259.999C479.205 302.371 469.196 342.858 449.997 378.996Z" fill="#C5D2DA" fill-opacity="0.35"/></svg>