<svg width="20" height="20" viewBox="0 0 20 20" fill="none" xmlns="http://www.w3.org/2000/svg"><circle cx="10" cy="10" r="10" fill="#39ABD7"/><path d="M12.5649 5.4178C12.6974 5.28534 12.8546 5.18027 13.0277 5.10858C13.2007 5.0369 13.3862 5 13.5735 5C13.7609 5 13.9464 5.0369 14.1194 5.10858C14.2925 5.18027 14.4497 5.28534 14.5822 5.4178C14.7147 5.55026 14.8197 5.70751 14.8914 5.88057C14.9631 6.05364 15 6.23913 15 6.42645C15 6.61377 14.9631 6.79926 14.8914 6.97233C14.8197 7.14539 14.7147 7.30265 14.5822 7.4351L7.7738 14.2435L5 15L5.75649 12.2262L12.5649 5.4178Z" stroke="white" stroke-linecap="round" stroke-linejoin="round"/></svg>